<?xml version="1.0" standalone="no"?>
<!DOCTYPE svg PUBLIC "-//W3C//DTD SVG 20010904//EN"
 "http://www.w3.org/TR/2001/REC-SVG-20010904/DTD/svg10.dtd">
<svg version="1.0" xmlns="http://www.w3.org/2000/svg"
 width="3840.000000pt" height="2400.000000pt" viewBox="0 0 3840.000000 2400.000000"
 preserveAspectRatio="xMidYMid meet">

<g transform="translate(0.000000,2400.000000) scale(0.100000,-0.100000)"
fill="#000000" stroke="none">
<path d="M0 12000 l0 -12000 6329 0 6329 0 6 307 c14 684 16 783 17 1156 1
322 4 387 15 387 8 0 14 -6 14 -12 5 -122 3 -1759 -2 -1760 -4 -2 -1 -20 5
-41 l12 -37 217 0 218 0 2 318 c1 174 2 340 3 367 0 28 2 155 3 283 1 175 5
233 14 230 13 -5 13 -225 1 -855 l-6 -343 12612 0 12611 0 0 12000 0 12000
-17090 0 c-16265 0 -17090 -1 -17090 -18 -1 -16 -1 -16 -11 1 -5 9 -17 17 -24
17 -8 0 -15 -8 -15 -17 -1 -17 -1 -17 -14 0 -12 16 -46 17 -460 17 l-446 0 -1
-127 c0 -71 -2 -139 -4 -153 -1 -14 -5 -155 -9 -315 -3 -159 -9 -317 -12 -350
-6 -65 -12 -172 -17 -277 -1 -37 -5 -69 -8 -73 -12 -11 -19 78 -15 183 2 56 0
102 -5 102 -5 0 -5 10 0 23 10 28 5 96 -10 113 -6 8 -9 20 -6 28 9 22 -4 27
-30 11 -13 -9 -23 -11 -23 -5 0 5 -6 10 -14 10 -21 0 -28 15 -20 45 4 16 13
25 25 25 12 0 19 7 19 20 0 11 -5 20 -11 20 -5 0 -7 5 -4 10 4 6 11 7 17 4 6
-4 8 1 6 12 -5 28 -36 29 -57 2 -14 -16 -16 -25 -8 -30 9 -6 9 -8 -1 -8 -7 0
-15 7 -19 15 -5 14 -8 14 -24 -1 -17 -15 -19 -15 -25 0 -3 9 -10 13 -15 10 -5
-3 -7 -9 -4 -13 2 -5 -7 -6 -20 -3 -14 2 -25 9 -25 14 0 5 -4 6 -10 3 -5 -3
-10 -34 -10 -69 0 -34 -3 -66 -7 -70 -4 -4 -9 -53 -11 -109 -3 -95 -5 -151
-16 -317 -2 -36 -5 -77 -5 -92 -1 -20 -6 -28 -18 -28 -17 -1 -17 -1 0 -11 10
-6 17 -22 17 -42 0 -22 -3 -28 -9 -19 -6 10 -10 6 -16 -15 l-8 -28 -12 30 -13
30 -4 -32 -3 -32 -25 19 c-23 18 -24 19 -7 38 9 10 17 25 17 33 -1 10 -4 9
-11 -4 -9 -14 -12 -15 -24 -4 -7 8 -15 25 -18 38 l-4 24 -2 -25 c-1 -14 -6
-32 -11 -40 -8 -13 -11 -12 -25 5 -15 20 -15 20 -30 0 -15 -18 -14 -20 10 -28
31 -11 31 -24 -1 -62 -17 -19 -28 -26 -31 -17 -2 6 -13 12 -22 12 -14 0 -17 6
-13 25 6 32 22 43 22 16 0 -12 7 -21 15 -21 18 0 19 9 1 33 -14 18 -46 23 -46
7 0 -5 -7 -10 -15 -10 -8 0 -15 -6 -15 -12 0 -8 -13 -13 -30 -13 -16 0 -30 3
-30 7 0 3 -13 9 -30 13 -21 5 -30 13 -30 26 0 37 -18 18 -24 -26 -4 -24 -11
-47 -15 -49 -5 -3 -6 6 -3 19 5 29 0 31 -33 9 -23 -15 -26 -14 -55 6 -16 12
-30 26 -30 31 0 5 -4 9 -10 9 -5 0 -10 -7 -10 -15 0 -8 -4 -15 -10 -15 -16 0
-12 27 5 34 22 8 45 -3 46 -23 0 -10 2 -11 6 -3 2 6 11 12 19 12 9 0 13 -4 10
-8 -2 -4 4 -9 15 -9 10 -1 19 5 19 13 0 8 -9 14 -20 14 -13 0 -20 7 -20 20 0
10 -13 33 -30 50 -16 17 -30 35 -30 40 0 6 -7 10 -15 10 -8 0 -14 -6 -13 -12
2 -8 -11 -14 -34 -16 -23 -2 -38 -8 -38 -16 0 -20 -50 -7 -80 21 -34 31 -64
31 -56 -1 4 -15 0 -28 -9 -36 -12 -10 -16 -8 -25 14 -5 14 -16 26 -25 26 -8 0
-15 5 -15 10 0 6 7 10 15 10 8 0 15 7 15 15 0 8 -4 15 -9 15 -5 0 -16 3 -24 6
-11 4 -14 -2 -12 -23 1 -15 5 -36 10 -46 10 -24 -4 -37 -16 -14 -6 9 -15 15
-20 11 -6 -3 -13 3 -16 15 -6 24 -21 28 -29 6 -7 -17 -54 -21 -54 -4 0 7 7 17
17 24 9 7 13 17 10 23 -11 16 -57 -9 -63 -35 -4 -13 -10 -21 -14 -18 -20 13
-30 -26 -25 -104 3 -55 0 -89 -8 -103 -9 -16 -9 -22 1 -25 6 -3 12 -9 12 -14
0 -4 -6 -6 -14 -3 -8 3 -13 0 -13 -8 4 -34 -15 -158 -24 -158 -6 0 -8 9 -4 20
3 10 7 73 8 140 1 66 5 120 9 120 5 0 8 5 8 11 0 5 -5 7 -10 4 -11 -7 -6 280
11 576 5 91 12 330 16 532 l6 367 -876 0 -877 0 0 -12000z m4417 11958 c-3 -8
-6 -5 -6 6 -1 11 2 17 5 13 3 -3 4 -12 1 -19z m-191 -33 c-1 -22 -15 -36 -17
-17 0 4 -2 15 -4 25 -2 9 3 17 10 17 7 0 12 -10 11 -25z m-1116 -665 c0 -5 -4
-10 -10 -10 -5 0 -10 5 -10 10 0 6 5 10 10 10 6 0 10 -4 10 -10z m-68 -33 c4
-20 1 -22 -28 -19 -17 2 -35 -1 -38 -7 -9 -13 -26 -15 -26 -2 0 5 16 15 35 22
19 7 35 19 35 27 0 21 17 5 22 -21z m-1187 -627 c0 -14 -7 -24 -17 -26 -14 -2
-18 5 -18 26 0 21 4 28 18 26 10 -2 17 -12 17 -26z m412 14 c4 -10 -1 -22 -10
-29 -10 -7 -17 -18 -17 -25 0 -7 -3 -11 -6 -8 -8 9 7 78 17 78 5 0 12 -7 16
-16z m930 -46 c-3 -8 -6 -5 -6 6 -1 11 2 17 5 13 3 -3 4 -12 1 -19z m-1019
-32 c3 -15 0 -17 -20 -11 -30 10 -31 11 -23 25 10 17 39 8 43 -14z m-83 -16
c3 -5 1 -10 -4 -10 -6 0 -11 5 -11 10 0 6 2 10 4 10 3 0 8 -4 11 -10z m452
-36 c-3 -3 -12 -4 -19 -1 -8 3 -5 6 6 6 11 1 17 -2 13 -5z m-62 -14 c-3 -5
-11 -10 -16 -10 -6 0 -7 5 -4 10 3 6 11 10 16 10 6 0 7 -4 4 -10z m375 -4 c0
-22 -19 -30 -35 -16 -22 18 -18 30 10 30 15 0 25 -6 25 -14z m-300 -48 c0 -17
-3 -19 -12 -10 -7 7 -22 12 -35 12 -13 0 -23 5 -23 10 0 6 16 10 35 10 29 0
35 -4 35 -22z m287 -30 c-10 -16 -12 -16 -15 -3 -2 9 -1 24 3 33 5 13 8 14 15
3 5 -9 3 -22 -3 -33z m-917 8 c0 -3 -4 -8 -10 -11 -5 -3 -10 -1 -10 4 0 6 5
11 10 11 6 0 10 -2 10 -4z m890 -120 c0 -3 -4 -8 -10 -11 -5 -3 -10 -1 -10 4
0 6 5 11 10 11 6 0 10 -2 10 -4z m-1113 -223 c-2 -16 -4 -5 -4 22 0 28 2 40 4
28 2 -13 2 -35 0 -50z m36678 -1103 c-3 -5 -22 -12 -43 -15 -20 -3 -50 -8 -67
-11 -18 -3 -26 -1 -20 5 6 5 35 12 65 16 30 4 57 9 59 11 8 8 12 4 6 -6z
m-155 -24 c0 -3 -4 -8 -10 -11 -5 -3 -10 -1 -10 4 0 6 5 11 10 11 6 0 10 -2
10 -4z m-19370 -5671 c0 -311 -4 -565 -9 -565 -4 0 -11 3 -15 8 -4 4 -31 14
-59 24 -32 10 -43 16 -29 17 19 1 22 5 17 21 -4 13 -2 20 6 20 7 0 10 3 7 6
-4 3 -16 1 -27 -6 -14 -7 -21 -7 -21 0 0 5 6 10 13 10 8 0 7 3 -3 9 -8 6 -17
8 -22 5 -4 -3 -14 9 -23 26 -8 16 -20 30 -26 30 -6 0 -8 7 -5 16 4 11 2 15 -7
11 -8 -3 -27 3 -42 13 -16 11 -32 17 -37 14 -4 -3 -8 -1 -8 4 0 5 -18 14 -41
21 -23 7 -39 14 -37 16 2 3 53 -11 112 -31 60 -19 109 -33 110 -32 7 13 -8
698 -15 698 -5 0 -55 -20 -112 -44 -56 -24 -137 -58 -179 -76 l-78 -32 -2
-196 c-1 -146 -3 -179 -8 -127 -10 90 -13 105 -31 115 -8 5 -14 15 -14 22 0 7
-6 14 -12 14 -7 1 -17 2 -23 3 -5 0 -7 8 -4 16 4 10 0 15 -11 15 -11 0 -15 5
-12 14 3 8 3 17 -1 21 -4 4 -12 -15 -19 -42 -10 -44 -11 -37 -12 89 l-1 138
38 19 c20 10 116 53 212 94 96 42 231 100 300 131 69 30 126 55 128 55 1 1 2
-253 2 -564z m545 383 c132 -57 245 -106 250 -110 7 -4 9 -239 7 -682 -2 -590
-4 -676 -17 -676 -8 0 -15 5 -15 11 0 5 5 7 10 4 6 -4 10 7 9 27 -1 18 -3 25
-6 16 -2 -10 -12 -18 -21 -17 -11 0 -12 2 -4 6 15 6 16 23 2 23 -6 0 -29 18
-52 40 -30 30 -39 36 -35 21 3 -12 1 -24 -4 -27 -5 -3 -9 31 -9 78 0 111 -12
502 -15 506 -2 2 -101 -28 -220 -67 -119 -39 -222 -71 -228 -70 -9 0 -9 2 0 5
7 3 11 11 9 17 -1 7 -1 9 1 5 6 -11 31 -10 37 1 11 18 -6 42 -28 39 -13 -2
-31 8 -48 26 l-27 29 -5 -24 c-3 -13 -7 -42 -9 -64 -2 -22 -4 208 -5 512 l-2
552 93 -39 c50 -21 200 -85 332 -142z m-305 -873 c0 -12 -19 -12 -23 0 -4 9
-1 12 9 8 7 -3 14 -7 14 -8z m-390 -15 c18 -12 2 -12 -25 0 -13 6 -15 9 -5 9
8 0 22 -4 30 -9z m900 -590 c-8 -5 -19 -10 -25 -10 -5 0 -3 5 5 10 8 5 20 10
25 10 6 0 3 -5 -5 -10z m-1420 -610 l0 -70 -85 0 -85 0 0 -40 c0 -22 -4 -41
-10 -41 -47 -6 -45 -10 -48 109 l-3 112 116 0 115 0 0 -70z m100 -25 l0 -95
75 0 c60 0 75 -3 75 -15 0 -8 -3 -15 -7 -16 -11 -1 -175 -1 -190 0 -10 1 -13
29 -13 104 0 57 3 107 7 110 3 4 17 7 30 7 22 0 23 -2 23 -95z m370 54 c12
-22 39 -70 61 -106 40 -65 43 -84 11 -78 -9 2 -19 4 -22 4 -3 1 -23 33 -44 71
-22 39 -44 69 -49 67 -5 -1 -27 -34 -50 -72 -31 -51 -49 -71 -66 -73 -33 -5
-27 12 43 131 66 112 84 121 116 56z m267 -29 c41 -38 79 -70 84 -70 5 0 9 32
9 70 0 68 1 70 25 70 l26 0 -3 -112 c-3 -96 -6 -113 -20 -116 -9 -2 -51 29
-100 73 l-83 76 -3 -71 c-2 -52 -7 -73 -18 -77 -28 -11 -36 14 -35 116 0 55 0
103 1 106 0 3 9 5 21 5 12 0 52 -29 96 -70z m403 50 c0 -18 -7 -20 -76 -20
-71 0 -75 -1 -72 -21 3 -20 10 -22 68 -23 59 -1 65 -3 68 -23 3 -22 0 -23 -68
-23 l-71 0 3 -27 c3 -27 5 -28 76 -31 63 -2 73 -5 70 -20 -3 -15 -16 -17 -98
-16 l-95 1 -3 111 -3 112 101 0 c93 0 100 -1 100 -20z m290 0 c0 -17 -7 -20
-45 -20 l-45 0 0 -89 c0 -81 -2 -90 -20 -96 -34 -11 -40 3 -40 96 l0 89 -45 0
c-38 0 -45 3 -45 20 0 19 7 20 120 20 113 0 120 -1 120 -20z m268 -92 l-3
-113 -100 0 c-86 0 -100 3 -103 17 -3 15 8 18 80 20 77 3 83 5 86 26 3 21 1
22 -87 22 l-91 0 0 70 0 70 110 0 111 0 -3 -112z m84 85 c-3 -17 -7 -22 -10
-13 -3 8 -9 21 -15 28 -7 9 -4 12 10 12 17 0 19 -5 15 -27z m72 10 c19 25 26
21 26 -15 0 -19 -4 -28 -8 -21 -9 14 -44 12 -54 -2 -4 -5 -8 6 -8 25 1 33 1
34 16 15 14 -19 16 -19 28 -2z m-4316 -649 c6 -11 17 -15 29 -12 19 5 21 -1
27 -71 4 -42 9 -110 10 -151 2 -41 11 -138 21 -215 19 -165 25 -446 9 -466 -8
-10 -8 -31 2 -74 7 -33 16 -79 20 -103 4 -23 11 -45 15 -48 5 -3 9 -13 9 -23
0 -10 7 -24 16 -31 20 -18 107 -15 146 4 49 25 45 10 -6 -22 -62 -39 -102 -56
-121 -48 -8 3 -25 22 -37 42 -12 21 -24 32 -26 25 -5 -15 42 -87 66 -100 25
-13 79 12 165 77 37 28 67 49 67 47 0 -2 -20 -27 -45 -55 -44 -49 -62 -87 -29
-59 29 24 244 290 244 302 0 7 -27 -17 -61 -53 -33 -36 -55 -55 -49 -42 16 32
1 27 -44 -15 -25 -25 -17 -11 25 38 35 42 85 105 112 140 26 35 88 116 138
179 49 63 100 129 113 145 32 40 44 25 16 -20 -44 -71 -12 -43 79 67 116 142
161 188 237 244 60 43 114 58 129 34 3 -5 15 -15 27 -21 24 -13 18 1 -15 39
-27 29 -60 28 -116 -4 l-46 -25 40 36 c21 19 49 38 62 41 32 9 80 -13 104 -47
11 -16 24 -29 28 -29 4 0 16 19 25 43 27 65 29 30 7 -104 -12 -66 -19 -125
-16 -129 3 -5 1 -11 -5 -15 -15 -9 -12 -25 3 -19 23 8 15 -151 -38 -726 -8
-85 -17 -204 -20 -265 -4 -60 -10 -132 -16 -160 -5 -27 -16 -104 -24 -170 -24
-187 -49 -315 -63 -324 -8 -5 -13 -17 -11 -27 2 -20 -5 -45 -26 -84 -7 -14
-16 -45 -20 -69 -4 -24 -13 -58 -21 -76 -7 -18 -10 -35 -7 -39 4 -3 1 -6 -5
-6 -7 0 -12 5 -12 10 0 19 -21 10 -31 -12 -7 -16 -8 9 -4 86 5 106 4 109 -19
127 -36 28 -40 52 -17 116 14 41 23 107 31 223 6 91 15 199 20 240 10 77 24
294 40 595 8 157 7 173 -11 209 -23 48 -23 46 -2 46 12 0 14 3 6 11 -18 18
-147 -66 -160 -106 -3 -11 -37 -53 -74 -94 -38 -41 -66 -77 -64 -80 3 -3 24
15 47 39 28 29 43 39 46 30 3 -9 10 -6 23 11 10 13 21 20 25 16 4 -4 -19 -35
-52 -68 -44 -46 -53 -59 -35 -54 19 6 22 4 15 -8 -21 -37 -239 -258 -242 -247
-3 7 3 17 11 22 9 4 26 23 38 41 25 38 -117 -105 -251 -251 -52 -57 -96 -98
-98 -92 -3 7 11 28 30 48 19 21 48 55 64 77 48 66 133 168 172 205 57 54 83
90 34 47 -56 -49 -259 -268 -288 -310 -12 -19 -35 -42 -51 -52 -43 -29 -135
-75 -149 -75 -7 0 -16 -5 -19 -10 -8 -13 38 -3 78 17 46 23 42 8 -7 -28 -25
-18 -44 -34 -41 -37 2 -2 30 10 62 28 48 27 55 29 38 10 -11 -12 -32 -28 -47
-36 -36 -19 -112 -18 -128 1 -7 8 -17 15 -22 15 -6 0 -24 10 -40 22 -30 21
-30 21 -19 0 6 -11 24 -26 41 -34 29 -13 40 -28 20 -28 -6 0 -27 7 -48 17 -20
9 -42 15 -49 14 -12 -2 -17 10 -28 67 -7 35 1 41 21 15 21 -28 17 4 -4 35 -10
15 -26 45 -35 67 l-15 40 4 -80 c3 -64 2 -74 -6 -50 -18 50 -29 122 -44 274
-8 79 -18 146 -24 150 -15 10 -34 136 -58 389 -3 28 -9 52 -14 52 -21 0 -82
-90 -145 -213 -65 -126 -83 -160 -163 -307 -34 -63 -59 -72 -27 -11 8 17 11
31 6 31 -5 0 -24 -30 -42 -67 -62 -129 -73 -148 -111 -207 -21 -33 -38 -65
-38 -70 0 -6 -9 -22 -20 -36 -46 -59 -4 -54 44 5 35 42 56 56 56 37 0 -4 -38
-59 -85 -122 -46 -63 -108 -154 -137 -203 -28 -48 -58 -92 -65 -98 -7 -7 -13
-17 -13 -24 0 -7 -7 -18 -15 -25 -10 -9 -15 -9 -15 -1 0 6 4 11 8 11 5 0 15
18 22 40 7 22 19 45 27 51 7 6 13 16 13 22 0 24 -31 -23 -86 -128 -31 -60 -72
-135 -92 -164 -19 -30 -54 -96 -79 -145 -24 -50 -49 -95 -55 -101 -12 -11 -12
-12 23 76 9 25 65 138 124 252 58 114 102 207 97 207 -6 0 -23 -21 -38 -47
-46 -77 -208 -412 -238 -490 -28 -75 -55 -111 -42 -57 4 16 5 27 3 24 -16 -17
-71 -121 -116 -222 -29 -64 -62 -125 -73 -135 -21 -18 -21 -18 -15 20 3 20 2
37 -4 37 -12 0 -12 37 0 44 5 3 9 22 9 41 0 20 4 48 10 63 5 15 15 47 22 72 6
25 16 53 21 62 5 10 9 26 9 35 0 29 60 214 90 278 15 33 36 84 46 113 10 28
22 52 26 52 4 0 8 15 8 34 0 18 7 39 15 46 8 7 15 19 15 27 0 7 29 67 64 131
35 64 77 144 94 177 16 33 52 103 80 155 65 122 101 219 95 253 -6 31 -18 34
-32 10 -10 -17 -10 -17 -11 0 0 20 60 135 97 184 13 18 27 40 31 50 11 28 180
279 197 293 23 19 19 -6 -6 -46 -11 -19 -16 -34 -11 -34 11 0 50 49 76 95 9
17 30 50 46 75 16 25 35 56 43 70 7 14 37 67 65 118 29 50 52 95 52 98 0 4 29
50 65 104 36 54 65 102 65 107 0 17 98 106 142 130 52 27 74 28 86 7z m6949
-120 c19 -20 29 -23 72 -19 28 2 56 7 61 10 13 8 13 -1 -2 -24 -12 -20 -5 -51
12 -51 5 0 10 6 10 14 0 8 5 18 12 22 7 5 9 1 6 -13 -6 -24 5 -23 167 5 51 8
174 17 283 19 176 4 199 3 265 -17 83 -25 141 -56 178 -97 29 -32 65 -125 74
-195 5 -38 3 -48 -13 -60 -10 -7 -24 -30 -31 -50 -7 -21 -18 -41 -25 -45 -18
-11 -36 -47 -36 -73 0 -11 -7 -35 -16 -52 -19 -37 -112 -138 -127 -138 -6 0
-21 -10 -34 -22 -40 -38 -38 -9 2 32 49 50 38 66 -13 19 -83 -79 -293 -196
-432 -242 -102 -33 -229 -90 -230 -102 0 -5 -18 -10 -40 -10 -21 -1 -42 -4
-45 -7 -5 -5 25 -64 66 -128 5 -8 17 -27 27 -42 9 -15 27 -33 39 -39 13 -7 23
-20 23 -30 0 -9 4 -19 8 -21 9 -3 70 -92 126 -182 21 -32 40 -56 43 -52 3 3
-26 53 -66 111 -39 58 -71 111 -71 116 0 11 -69 129 -81 139 -3 3 -11 15 -18
27 -18 36 5 36 44 0 25 -23 37 -44 42 -72 5 -34 22 -69 71 -152 32 -56 140
-217 202 -303 42 -58 86 -122 99 -143 41 -67 17 -49 -40 29 -69 97 -123 164
-127 160 -1 -2 32 -55 74 -117 42 -63 94 -145 115 -184 22 -38 44 -77 49 -85
5 -8 26 -43 46 -78 21 -35 38 -71 39 -80 1 -18 116 -200 167 -264 37 -48 22
-50 -21 -3 -17 19 -39 35 -49 35 -10 0 -26 14 -35 30 -10 17 -26 30 -36 30
-32 0 -104 75 -211 218 -96 130 -130 167 -100 112 27 -50 -13 -9 -84 88 -72
96 -108 135 -69 75 46 -72 253 -336 273 -348 5 -3 10 -10 10 -16 0 -16 -37 13
-54 43 -20 33 -37 37 -29 7 6 -21 5 -20 -33 3 -21 14 -44 35 -50 47 -14 27
-48 67 -61 72 -12 5 -82 97 -94 124 -35 79 -191 323 -197 307 -2 -7 18 -46 43
-87 26 -42 45 -78 42 -81 -3 -3 -29 26 -59 64 -29 38 -80 104 -113 145 -129
161 -183 234 -215 290 -17 31 -36 57 -41 57 -13 0 -30 -38 -30 -68 0 -49 7
-67 27 -67 12 0 17 -5 15 -15 -2 -8 -6 -32 -9 -52 -3 -27 -9 -38 -21 -38 -9 0
-31 -13 -48 -29 -30 -27 -32 -28 -35 -8 -2 14 -9 5 -25 -31 -12 -29 -17 -52
-11 -52 5 0 12 9 15 20 9 35 24 22 17 -15 -3 -19 -7 -60 -8 -91 -1 -47 -5 -59
-22 -66 -13 -6 -25 -29 -36 -66 -14 -53 -26 -89 -50 -151 -5 -13 -11 -21 -14
-19 -2 3 9 46 26 96 33 100 36 116 15 89 -12 -17 -13 -15 -11 21 2 22 7 46 12
53 9 14 30 66 41 102 3 9 1 17 -3 17 -9 0 -28 -38 -109 -215 -20 -44 -54 -115
-76 -158 -21 -43 -39 -83 -39 -90 0 -15 -99 -206 -100 -192 -1 26 44 159 79
235 21 47 46 103 55 125 9 22 21 48 26 57 14 24 12 50 -2 46 -6 -2 -17 -23
-24 -46 -20 -71 -38 -82 -96 -58 -12 6 -18 1 -23 -16 -4 -13 -20 -50 -35 -83
-15 -33 -32 -77 -39 -97 -12 -37 -31 -51 -31 -25 0 7 -7 4 -15 -7 -24 -31 -27
-13 -7 35 10 24 45 121 77 214 32 94 71 202 87 240 34 80 57 149 64 185 23
140 32 174 45 178 8 3 34 14 58 24 48 20 52 36 5 17 -16 -6 -58 -12 -93 -14
-55 -2 -64 0 -68 16 -6 23 -11 23 -34 4 -22 -21 -69 -10 -69 16 0 21 11 24 27
8 15 -15 43 -4 43 17 0 14 -8 16 -62 10 -56 -6 -61 -5 -44 8 18 14 99 36 135
36 9 0 26 7 37 16 18 14 17 15 -18 9 -20 -3 -67 -8 -105 -11 -63 -4 -67 -3
-48 11 11 9 19 23 17 31 -2 8 5 14 16 14 11 0 25 7 32 15 7 9 19 14 26 11 14
-6 30 11 20 22 -4 3 -27 5 -51 3 -26 -1 -45 2 -45 9 0 5 11 10 25 10 21 0 25
5 25 30 0 17 3 30 8 31 4 0 36 3 72 5 36 3 69 9 74 14 6 6 20 10 32 10 12 0
29 11 38 25 9 14 23 25 30 25 15 0 17 3 82 190 26 74 52 138 58 142 10 7 38
110 31 116 -2 2 -13 -1 -24 -8 -12 -6 -61 -13 -109 -16 -92 -5 -158 -18 -207
-39 -77 -33 -108 -45 -112 -41 -4 4 71 49 100 59 9 4 17 13 17 21 0 8 31 23
83 40 94 30 124 46 90 46 -12 0 -24 -4 -28 -9 -3 -5 -19 -12 -35 -16 -17 -4
-76 -24 -131 -46 -55 -21 -111 -39 -124 -39 -13 0 -27 -4 -30 -10 -3 -5 -11
-10 -18 -10 -26 0 13 21 83 46 82 28 230 97 190 88 -14 -3 -55 -20 -93 -36
-109 -50 -89 -23 24 31 57 28 100 50 96 51 -5 0 -47 -13 -94 -30 -139 -49
-143 -35 -5 20 46 18 102 45 125 61 23 16 49 29 57 29 9 0 56 12 105 26 49 14
121 32 160 39 119 23 141 30 127 39 -8 4 -32 3 -55 -2 -23 -6 -63 -13 -89 -16
l-46 -5 8 28 c14 51 70 139 93 147 9 3 17 12 17 21 0 23 69 7 97 -23z m-5617
-23 c17 -43 29 -102 19 -95 -5 3 -9 16 -9 30 0 19 -5 24 -25 24 -22 0 -25 4
-25 35 0 44 23 47 40 6z m2214 -24 c13 -9 33 -42 46 -74 13 -32 28 -62 33 -68
7 -7 8 -6 3 3 -4 6 -3 12 3 12 34 0 53 -141 34 -239 -18 -85 -27 -92 -19 -14
6 53 4 65 -12 81 -19 19 -20 18 -26 -77 -4 -53 -13 -127 -20 -166 -8 -38 -17
-87 -20 -107 -10 -57 -26 -46 -24 17 1 47 -2 58 -25 79 -24 22 -27 23 -27 7 0
-28 -21 -81 -32 -81 -6 0 -7 27 -2 71 5 48 3 70 -3 66 -6 -4 -13 -34 -17 -66
-8 -68 -21 -86 -29 -41 -5 21 -11 28 -22 24 -13 -6 -15 5 -11 79 2 47 7 91 11
97 3 5 0 10 -7 10 -7 0 3 15 22 32 l34 32 8 -38 c5 -23 4 -55 -3 -78 -5 -22
-8 -43 -5 -46 3 -3 6 2 6 10 0 9 4 18 9 20 17 6 20 91 5 121 -18 33 -25 34
-62 2 -17 -14 -34 -25 -39 -25 -10 0 -90 -97 -133 -160 -36 -52 3 -17 46 42
20 27 38 47 41 44 2 -2 -18 -35 -46 -73 -58 -81 -115 -179 -124 -214 -14 -54
41 -88 183 -113 116 -21 184 -58 238 -126 23 -30 51 -64 61 -75 16 -18 18 -35
13 -97 -2 -22 -20 -23 -43 -2 -16 14 -18 14 -24 -8 -4 -13 -16 -33 -27 -44
-11 -12 -32 -48 -47 -81 -68 -144 -207 -334 -258 -354 -13 -5 -31 -21 -40 -36
-24 -39 -124 -163 -130 -163 -3 0 2 12 12 26 9 15 12 23 6 20 -6 -4 -30 -37
-54 -74 -46 -70 -58 -83 -147 -156 -46 -38 -57 -43 -66 -31 -6 8 -20 15 -30
15 -16 0 -16 -2 -4 -10 31 -19 2 -18 -38 1 -42 21 -65 53 -77 109 -4 16 -11
32 -16 36 -11 7 -34 58 -61 138 -15 45 -18 71 -12 105 4 25 7 55 8 66 2 46 23
21 52 -67 18 -51 33 -86 33 -77 1 9 -15 65 -34 125 -42 128 -47 187 -10 109
21 -44 23 -47 24 -22 1 15 6 27 11 27 6 0 10 18 10 40 0 22 4 40 9 40 4 0 6
24 4 53 -7 83 13 46 57 -109 52 -182 52 -182 97 -190 34 -6 40 -4 69 30 18 20
35 49 39 64 6 25 112 192 122 192 2 0 1 -10 -3 -22 -6 -21 -5 -21 10 -9 13 11
19 12 25 3 4 -7 32 20 74 70 37 45 64 84 61 87 -3 3 -10 -3 -16 -13 -14 -24
-83 -97 -72 -76 4 8 15 26 24 40 10 14 16 30 14 35 -2 6 14 46 37 90 52 103
55 101 -118 125 -46 6 -95 17 -110 25 -16 8 -34 15 -41 15 -23 0 -106 48 -144
83 -45 41 -47 61 -13 107 14 19 25 42 25 51 0 10 6 24 13 31 7 7 39 67 72 133
32 66 74 144 92 173 18 29 33 55 33 59 0 3 31 47 69 97 85 112 149 176 159
159 5 -8 19 0 44 25 20 20 54 45 75 56 21 10 45 22 53 27 21 12 86 4 114 -14z
m813 -309 c4 -7 8 -17 8 -23 0 -6 27 -10 60 -10 48 0 67 -5 90 -23 16 -12 35
-20 42 -17 10 3 13 -1 8 -15 -9 -28 10 -25 43 5 32 30 38 31 53 7 10 -15 19
-17 58 -11 112 18 260 39 311 44 52 6 54 5 30 -9 -14 -8 -50 -21 -80 -27 -30
-7 -48 -14 -39 -16 10 -2 44 3 78 12 33 8 64 14 68 13 4 -1 34 4 65 12 40 9
65 10 80 3 15 -6 40 -5 81 4 33 8 62 12 64 9 8 -7 -34 -23 -82 -32 -37 -6 -38
-8 -15 -14 24 -8 24 -8 -9 -15 -29 -7 -32 -10 -18 -20 9 -7 13 -16 9 -20 -4
-4 4 -5 18 -2 14 3 70 13 125 21 55 9 111 19 125 23 22 6 23 5 12 -10 -13 -15
-68 -32 -140 -44 -40 -6 -53 -23 -18 -23 14 0 26 -4 26 -10 0 -5 -2 -10 -5
-10 -3 0 -49 -12 -102 -26 -54 -14 -129 -34 -168 -44 -49 -12 -65 -20 -52 -25
9 -4 31 -5 47 -3 17 3 30 1 30 -3 0 -8 -74 -26 -147 -36 -24 -3 -43 -9 -43
-12 0 -10 -74 -27 -195 -47 -151 -24 -168 -28 -173 -43 -4 -11 1 -12 19 -7 13
4 67 13 119 21 52 8 109 17 125 20 l30 5 -30 -14 c-16 -8 -84 -24 -150 -37
-66 -12 -124 -25 -128 -29 -9 -8 -78 -302 -72 -308 2 -2 16 36 31 85 28 93 31
99 39 91 5 -5 -115 -413 -162 -547 -16 -47 -34 -86 -41 -89 -24 -8 -17 23 64
303 4 13 3 16 -3 10 -8 -8 -79 -242 -115 -380 -6 -22 -23 -78 -38 -125 -15
-47 -33 -109 -41 -137 -12 -49 -28 -71 -29 -40 -1 6 -10 -17 -22 -53 -37 -119
-50 -149 -64 -154 -16 -6 -18 13 -5 64 5 19 11 51 15 70 4 30 1 27 -24 -25
-16 -33 -29 -68 -29 -77 -1 -9 -6 -20 -11 -23 -6 -3 -15 -26 -21 -51 -13 -51
-31 -60 -23 -11 4 24 3 28 -5 17 -6 -8 -11 -22 -11 -30 0 -26 -43 -150 -51
-150 -5 0 -9 7 -9 15 0 8 -5 15 -11 15 -6 0 -9 -6 -6 -14 3 -8 3 -17 -1 -21
-4 -4 -8 -10 -8 -13 -19 -92 -48 -49 -39 58 13 164 49 342 111 547 19 64 13
92 -9 40 -9 -21 -23 -45 -32 -53 -8 -9 -15 -24 -15 -35 0 -10 -5 -19 -11 -19
-8 0 -10 12 -6 33 32 178 69 363 83 412 9 33 18 74 20 90 5 45 31 155 47 200
8 22 17 56 21 76 6 33 11 38 51 49 25 7 48 17 52 23 4 6 -2 8 -18 3 -51 -15
-54 -13 -52 28 3 38 3 38 -29 32 -64 -13 -12 12 80 38 50 14 108 32 127 40 39
17 49 41 13 31 -45 -13 -54 -15 -93 -20 -65 -8 -95 -16 -95 -25 0 -5 -6 -7
-14 -4 -8 3 -55 -5 -106 -17 -68 -17 -94 -20 -99 -11 -5 8 -17 9 -41 2 -23 -7
-36 -6 -40 0 -4 6 -14 8 -24 4 -11 -4 -26 2 -40 15 -26 24 -49 23 -153 -6 -29
-8 -65 -13 -80 -11 -27 4 -27 5 12 22 80 34 83 36 35 30 l-45 -6 33 31 c18 17
45 34 60 37 47 10 48 11 20 23 -54 21 -31 43 73 71 118 31 175 49 162 49 -21
1 -15 18 9 24 12 4 20 9 17 11 -3 3 -37 -1 -75 -9 -82 -17 -104 -18 -104 -5 0
6 9 10 20 10 12 0 80 14 153 30 205 47 259 59 304 66 51 8 63 21 68 69 5 54
25 95 46 95 10 0 21 -6 26 -12z m-2137 -18 c0 -5 11 -10 25 -10 14 0 25 5 25
10 0 14 46 12 58 -2 24 -31 21 -82 -10 -138 l-30 -55 31 29 c17 17 31 35 31
40 0 6 10 25 21 41 l21 30 -7 -65 c-3 -36 -8 -83 -10 -104 -3 -29 0 -43 13
-53 15 -11 15 -14 2 -25 -47 -40 -246 -295 -237 -304 3 -3 43 46 91 108 105
139 145 186 146 172 0 -6 -18 -38 -41 -72 -37 -56 -40 -64 -31 -94 13 -41 49
-209 57 -262 3 -22 7 -41 9 -43 1 -2 27 4 57 13 30 9 79 18 109 19 30 1 73 10
95 20 87 39 175 67 175 56 0 -4 -70 -41 -155 -81 -147 -71 -195 -101 -103 -66
l43 16 -25 -21 c-14 -12 -58 -39 -98 -61 -40 -22 -71 -42 -69 -45 3 -2 47 17
98 42 104 50 99 48 99 37 0 -5 -27 -23 -60 -42 -33 -19 -60 -37 -60 -41 0 -5
-30 -25 -67 -45 -38 -21 -105 -61 -150 -91 -45 -29 -84 -53 -87 -53 -14 0
-196 -113 -196 -122 0 -5 25 4 56 22 37 21 62 29 76 24 21 -6 21 -7 -3 -25
-13 -10 -64 -42 -114 -71 -92 -53 -266 -168 -298 -196 -9 -8 -20 -13 -23 -10
-3 4 29 41 71 83 41 43 74 79 72 81 -2 2 -27 -13 -55 -34 -29 -20 -81 -57
-116 -82 -69 -48 -72 -53 -176 -288 -33 -74 -48 -84 -45 -28 3 41 41 119 162
336 14 25 19 38 10 30 -8 -8 -47 -71 -86 -140 -39 -69 -75 -130 -80 -137 -6
-6 -50 -97 -98 -203 -48 -105 -89 -187 -91 -182 -1 5 6 34 18 63 23 62 25 73
9 63 -8 -4 -9 0 -4 15 10 34 -20 26 -35 -9 -7 -16 -19 -35 -28 -42 -14 -12
-15 -8 -9 32 9 61 150 480 197 585 10 22 25 61 34 87 8 26 29 71 45 100 16 29
45 98 64 153 67 192 192 489 276 654 53 104 78 133 42 47 -20 -46 -20 -46 -1
-36 11 6 20 17 20 25 0 8 4 15 10 15 5 0 7 7 4 15 -4 9 0 15 10 15 9 0 16 -2
16 -4 0 -6 -59 -139 -71 -159 -6 -11 -8 -21 -6 -24 6 -5 62 88 97 162 51 106
167 280 205 307 5 4 15 6 22 3 6 -2 17 3 23 11 14 16 30 19 30 4z m3910 -140
c0 -5 -5 -10 -11 -10 -5 0 -7 5 -4 10 3 6 8 10 11 10 2 0 4 -4 4 -10z m-613
-18 c23 -15 -2 -33 -37 -26 -30 7 -32 8 -15 21 21 15 35 16 52 5z m387 -63
c-78 -36 -71 -47 19 -29 55 11 101 14 141 9 33 -4 69 -4 81 1 41 16 135 23
135 11 0 -6 -8 -15 -17 -18 -36 -14 -64 -47 -61 -72 3 -23 -2 -26 -59 -40 -64
-17 -103 -39 -45 -26 17 3 32 3 32 -2 0 -17 -78 -51 -165 -72 -122 -30 -183
-49 -225 -71 -19 -9 -60 -25 -90 -35 -30 -10 -59 -21 -65 -25 -5 -4 -21 -11
-35 -15 -35 -11 -130 -55 -130 -60 0 -3 24 5 53 16 173 69 251 98 255 94 2 -2
-9 -27 -25 -57 -16 -29 -43 -89 -61 -133 -20 -48 -45 -90 -63 -106 l-30 -26
68 1 c37 1 115 12 173 24 58 12 116 22 130 22 l25 0 -30 -25 c-37 -30 -33 -30
40 -5 72 25 103 27 85 5 -7 -8 -19 -15 -26 -15 -8 0 -14 -5 -14 -11 0 -7 -10
-9 -27 -4 l-28 7 23 -20 c27 -23 28 -37 5 -52 -15 -9 -13 -10 10 -5 15 3 27 1
27 -4 0 -5 -12 -13 -27 -19 -16 -6 -58 -22 -95 -36 -36 -14 -72 -26 -79 -26
-7 0 -70 -18 -139 -39 -69 -22 -151 -47 -183 -57 -32 -9 -60 -20 -63 -25 -2
-4 -18 -54 -34 -111 -17 -57 -35 -111 -40 -120 -6 -10 -10 -25 -10 -33 0 -9
-7 -18 -15 -21 -21 -9 -19 -29 8 -59 25 -30 50 -33 152 -22 57 7 59 6 30 -7
-40 -19 -12 -20 49 -1 26 8 52 13 56 10 9 -5 95 15 140 33 38 15 122 33 127
28 10 -10 -11 -29 -51 -47 l-41 -19 38 0 c20 0 37 -4 37 -10 0 -5 -5 -10 -11
-10 -7 0 -30 -15 -53 -33 -23 -19 -57 -42 -76 -51 -19 -10 -74 -38 -122 -62
-49 -24 -88 -46 -88 -49 0 -9 106 37 195 85 141 76 265 138 265 133 0 -11
-100 -82 -170 -121 -25 -14 -76 -43 -115 -66 -38 -22 -83 -44 -100 -47 -16 -4
-68 -17 -114 -29 -72 -19 -90 -21 -125 -10 -134 38 -148 44 -177 81 -16 20
-29 43 -29 51 0 7 -8 24 -17 38 -29 42 -16 297 16 308 8 3 9 8 2 15 -9 12 -11
18 -11 37 0 6 -28 7 -75 3 -86 -7 -96 3 -37 38 50 30 49 29 29 40 -36 21 -20
47 51 81 48 23 61 33 47 36 -42 8 -38 22 12 43 36 15 54 29 61 48 41 108 90
225 114 270 l28 54 113 45 c61 24 114 46 117 49 12 12 -69 -11 -115 -34 -27
-13 -68 -26 -90 -30 -22 -3 -100 -28 -173 -55 -73 -26 -139 -48 -147 -48 -33
0 -11 19 63 54 l77 36 -49 -6 c-37 -4 -61 -15 -93 -41 -46 -38 -63 -38 -88 1
-16 23 -15 28 15 88 33 67 57 98 73 98 6 0 3 -8 -6 -18 -12 -13 -13 -22 -6
-32 7 -10 12 -11 15 -4 3 6 18 29 34 51 29 39 38 44 153 74 23 7 60 20 82 31
38 18 30 18 -35 2 -22 -6 -23 -5 -10 8 17 16 151 60 335 108 66 18 152 42 190
54 39 13 81 23 95 24 21 0 18 -3 -16 -19z m-3968 -56 c-10 -10 -19 5 -10 18 6
11 8 11 12 0 2 -7 1 -15 -2 -18z m-861 -73 c-3 -5 -14 -10 -23 -10 -15 0 -15
2 -2 10 20 13 33 13 25 0z m4055 -55 c-7 -8 -18 -15 -24 -15 -6 0 -22 -9 -36
-20 -14 -11 -37 -20 -52 -20 -23 0 -28 5 -28 23 0 19 8 25 43 34 23 5 57 11
76 12 29 1 32 -1 21 -14z m1130 7 c0 -12 -49 -37 -56 -29 -11 10 17 37 37 37
11 0 19 -4 19 -8z m147 -88 c8 -23 -14 -33 -50 -23 -38 11 -45 18 -27 29 24
15 70 12 77 -6z m-2222 -14 c-27 -12 -43 -12 -25 0 8 5 22 9 30 9 10 0 8 -3
-5 -9z m-381 -40 c14 -14 -3 -30 -31 -30 -14 0 -31 -8 -38 -17 -10 -14 -17
-15 -36 -6 -13 5 -39 8 -57 5 -27 -3 -31 -2 -26 12 3 9 12 16 19 16 6 0 20 9
30 20 15 16 26 18 74 14 31 -3 60 -9 65 -14z m146 -19 c0 -5 -9 -11 -20 -14
-22 -6 -28 8 -7 16 19 8 27 8 27 -2z m-1165 -29 c5 -12 17 -22 26 -22 9 0 22
-7 29 -14 6 -8 31 -23 56 -32 39 -15 59 -34 35 -34 -19 0 -79 25 -114 48 -39
26 -82 89 -55 80 7 -2 17 -14 23 -26z m844 -62 c27 -48 9 -54 -19 -7 -22 35
-25 47 -12 47 5 0 18 -18 31 -40z m3751 35 c0 -2 -9 -9 -20 -15 -12 -6 -20 -7
-20 -1 0 5 8 12 18 14 9 3 18 5 20 6 1 0 2 -1 2 -4z m-65 -25 c-3 -5 -12 -10
-18 -10 -7 0 -6 4 3 10 19 12 23 12 15 0z m-4884 -377 c0 -5 2 -19 4 -33 14
-93 25 -400 14 -400 -4 0 -12 14 -18 30 -5 17 -11 30 -13 30 -2 0 -3 -58 -3
-129 0 -123 -1 -131 -23 -151 -13 -12 -24 -20 -26 -19 -1 2 -12 19 -23 38
l-21 34 0 -89 c0 -49 -1 -93 -2 -99 -1 -5 -12 40 -25 100 -13 61 -32 135 -43
165 -11 30 -25 82 -31 115 -19 98 -41 229 -41 247 0 18 76 74 166 124 27 14
53 30 59 35 11 11 25 12 26 2z m-1086 -178 c8 -67 -10 -143 -30 -137 -19 5 -4
202 15 202 5 0 12 -29 15 -65z m4205 -38 c0 -8 -11 -20 -25 -27 -14 -7 -25
-22 -25 -32 0 -22 -16 -23 -36 -4 -12 13 -10 19 17 45 31 32 69 41 69 18z
m-6709 -50 c-41 -78 -62 -107 -105 -150 -38 -36 -56 -42 -63 -20 -5 13 75 109
87 106 10 -3 90 93 90 108 0 5 4 9 9 9 6 0 -3 -24 -18 -53z m8116 -17 c24 -35
43 -68 43 -73 0 -4 -28 20 -63 55 -46 46 -61 66 -54 76 16 20 29 10 74 -58z
m-6767 -20 c12 -7 10 -10 -9 -18 -20 -7 -21 -9 -7 -21 9 -8 16 -17 16 -22 0
-17 -22 -9 -51 20 -16 16 -29 34 -29 40 0 13 59 14 80 1z m3004 -72 c-4 -7
-19 -29 -33 -48 -14 -19 -35 -52 -46 -74 -20 -39 -81 -94 -92 -83 -8 8 34 64
136 179 33 38 49 49 35 26z m2816 -78 c0 -5 -7 -10 -15 -10 -8 0 -15 5 -15 10
0 6 7 10 15 10 8 0 15 -4 15 -10z m-315 -9 c-7 -13 -113 -43 -133 -39 -10 2
12 13 48 25 74 24 94 27 85 14z m-6641 -168 c-4 -10 -7 -31 -6 -47 2 -38 -17
-74 -29 -55 -6 11 -11 11 -21 1 -15 -15 -28 -16 -28 -2 0 16 72 120 82 120 6
0 7 -8 2 -17z m6906 -25 c-39 -33 -91 -68 -102 -68 -40 0 55 97 101 102 39 5
39 -1 1 -34z m1790 -92 c0 -5 -11 1 -25 14 -14 13 -25 31 -25 39 1 11 9 6 25
-14 14 -16 25 -34 25 -39z m-8805 -76 c-8 -16 -15 -38 -15 -48 0 -23 -35 -56
-49 -47 -19 11 -12 37 26 86 39 51 63 57 38 9z m2091 -27 c-11 -11 -19 6 -11
24 8 17 8 17 12 0 3 -10 2 -21 -1 -24z m6519 -82 c-7 -7 -45 39 -44 54 0 6 11
-3 25 -19 14 -15 22 -31 19 -35z m-6193 27 c-7 -7 -12 -8 -12 -2 0 14 12 26
19 19 2 -3 -1 -11 -7 -17z m3649 -42 c19 -45 19 -45 -1 -78 -25 -41 -26 -56
-2 -35 10 10 22 14 25 10 4 -3 7 3 7 14 0 11 7 27 16 34 14 11 19 10 35 -10
11 -13 19 -29 19 -36 0 -17 -25 -26 -38 -13 -6 6 -12 6 -16 0 -4 -6 3 -17 15
-26 25 -17 32 2 -81 -206 -40 -74 -83 -149 -95 -165 -51 -69 -188 -385 -173
-400 5 -5 155 59 166 70 4 4 -4 5 -18 1 -60 -15 -72 -15 -36 -1 21 8 49 12 63
9 17 -5 23 -3 21 7 -2 8 3 13 10 11 18 -3 128 25 276 72 l128 41 22 55 c20 48
93 200 100 208 2 1 10 0 19 -4 15 -5 14 -10 -4 -46 -11 -22 -19 -44 -17 -49 2
-5 12 7 23 28 49 93 101 180 123 207 32 40 71 60 87 46 9 -8 15 -8 20 0 12 19
35 10 46 -17 9 -23 7 -35 -10 -67 -20 -38 -20 -39 -1 -21 11 10 20 24 20 30 0
7 7 19 16 26 15 12 16 9 10 -31 -4 -25 -10 -52 -12 -62 -3 -9 0 -19 6 -23 13
-8 2 -53 -22 -88 -20 -28 -20 -29 0 -133 11 -58 22 -108 25 -111 3 -3 20 0 38
6 18 6 47 11 65 11 18 0 59 11 90 25 90 40 88 22 -2 -21 -45 -21 -81 -43 -80
-49 1 -5 -21 -22 -49 -37 -63 -35 -42 -37 25 -3 28 14 50 21 50 17 0 -5 -12
-14 -26 -21 -14 -6 -41 -23 -59 -37 -29 -22 -32 -29 -25 -52 12 -38 20 -242
10 -242 -5 0 -11 6 -13 13 -3 6 -5 -23 -5 -65 0 -48 -4 -84 -12 -93 -17 -21
-26 -19 -35 8 -6 17 -9 10 -14 -33 l-7 -55 -8 50 c-4 28 -14 68 -22 90 -8 22
-23 87 -34 145 l-20 105 27 23 c21 17 13 15 -33 -10 -83 -45 -110 -65 -102
-73 3 -3 18 1 32 11 15 9 29 14 32 11 6 -5 -98 -77 -110 -77 -3 0 -37 -22 -76
-50 -39 -27 -73 -50 -77 -50 -4 0 15 23 42 51 55 57 49 56 -40 -7 -54 -38 -65
-52 -104 -134 -24 -50 -48 -93 -53 -96 -17 -11 6 52 49 134 24 45 42 82 39 82
-8 0 -103 -165 -128 -222 -12 -29 -33 -73 -45 -98 l-23 -45 6 38 c5 29 3 37
-9 37 -8 0 -18 -10 -22 -22 -6 -19 -8 -20 -12 -6 -8 32 85 301 172 498 18 41
36 85 39 97 l7 21 -53 -20 c-153 -58 -287 -126 -372 -191 -115 -87 -248 -199
-340 -287 -43 -41 -74 -66 -68 -55 18 36 91 112 172 181 44 37 78 69 76 71 -5
6 -127 -79 -185 -128 -25 -21 -50 -35 -55 -31 -6 4 -20 5 -31 3 -17 -3 -18 -1
-5 15 12 13 12 18 2 21 -31 11 -34 43 -7 89 28 48 27 52 -11 28 -27 -19 -43
-12 -25 10 6 8 10 19 9 26 -3 11 134 95 232 142 25 11 40 23 33 25 -6 2 -34
-7 -62 -22 -28 -14 -51 -22 -51 -18 1 39 121 405 140 428 5 6 16 32 25 58 9
26 32 82 51 123 19 41 44 103 55 137 12 34 25 67 28 72 4 6 16 35 26 66 21 65
62 129 91 144 11 6 19 16 16 23 -2 7 5 12 18 12 15 0 26 -12 41 -44z m-3668 9
c-3 -9 -8 -14 -10 -11 -3 3 -2 9 2 15 9 16 15 13 8 -4z m6327 -25 c12 -16 18
-30 13 -29 -12 0 -56 59 -44 59 5 0 19 -13 31 -30z m-6349 -27 c-12 -20 -14
-14 -5 12 4 9 9 14 11 11 3 -2 0 -13 -6 -23z m-824 -13 c-6 -29 6 -42 17 -17
3 8 8 7 16 -6 6 -9 16 -15 21 -11 20 12 39 -19 39 -63 0 -40 2 -44 20 -38 24
8 25 3 3 -38 -9 -18 -18 -54 -20 -81 -3 -40 -11 -58 -39 -89 -21 -22 -33 -45
-30 -53 3 -8 2 -13 -3 -10 -16 10 -203 -245 -282 -384 -37 -66 -41 -78 -31
-103 9 -23 8 -30 -9 -40 -10 -6 -19 -20 -19 -30 0 -14 -5 -17 -16 -13 -23 9
-53 -25 -99 -109 -20 -38 -41 -74 -45 -80 -4 -5 -33 -57 -63 -115 -75 -145
-141 -253 -151 -251 -5 2 -19 -19 -32 -46 -13 -26 -23 -40 -23 -30 -1 26 -14
15 -39 -37 -13 -25 -28 -48 -33 -52 -6 -3 3 20 19 53 66 133 84 174 79 179 -3
3 -22 -26 -44 -65 -21 -39 -42 -71 -47 -71 -14 0 2 75 34 155 17 42 30 81 30
88 0 6 33 79 74 162 114 230 235 515 219 515 -2 0 -13 -20 -24 -45 -11 -25
-24 -43 -29 -40 -5 3 -14 -4 -21 -16 -11 -22 -12 -21 -46 17 -21 24 -30 30
-23 16 21 -43 2 -34 -31 15 -18 26 -59 82 -89 123 -31 41 -81 111 -110 155
-29 44 -73 102 -97 129 -24 27 -42 54 -40 60 2 6 -5 22 -15 36 l-20 25 31 8
c17 4 31 14 31 21 0 19 37 27 67 15 17 -6 30 -6 39 2 10 8 23 0 59 -36 48 -50
54 -51 30 -5 -34 65 -1 21 128 -167 125 -186 178 -274 127 -214 -11 13 -23 22
-25 19 -6 -6 64 -108 75 -108 5 0 18 19 28 43 10 23 39 71 63 107 25 36 70
117 101 181 55 116 176 306 163 259 -4 -16 4 -8 21 20 48 80 54 90 60 90 4 0
4 -13 1 -30z m6369 -36 c-6 -22 -4 -25 14 -19 11 4 20 2 20 -4 0 -6 11 -11 24
-11 27 0 36 -16 36 -67 0 -26 4 -34 14 -30 24 9 25 -3 6 -39 -11 -18 -21 -53
-22 -76 -2 -31 -11 -55 -36 -85 -19 -24 -30 -48 -26 -54 4 -7 3 -9 -4 -6 -15
10 -206 -251 -282 -386 -29 -52 -31 -62 -20 -85 10 -24 9 -28 -9 -41 -12 -7
-21 -20 -21 -28 0 -10 -6 -13 -15 -9 -9 3 -18 -1 -21 -9 -4 -8 -12 -15 -20
-15 -8 0 -14 -4 -14 -8 0 -4 -22 -46 -48 -92 -27 -47 -73 -132 -104 -190 -78
-148 -127 -230 -138 -230 -5 0 -16 -13 -25 -30 -8 -16 -20 -29 -25 -27 -6 1
-24 -20 -40 -48 -41 -70 -37 -53 15 59 55 120 58 145 5 51 -100 -179 -25 91
91 325 77 157 165 353 174 393 4 15 11 30 16 33 5 3 9 16 9 29 0 13 9 34 20
47 36 41 117 180 187 318 66 133 144 255 156 244 3 -3 18 16 33 43 45 79 62
94 50 47z m-8184 -76 c-7 -7 -12 -8 -12 -2 0 14 12 26 19 19 2 -3 -1 -11 -7
-17z m5355 -16 c-21 -23 -22 -42 -2 -42 7 0 18 -7 23 -16 7 -13 21 -14 111 -5
284 30 398 -1 447 -118 11 -25 12 -42 5 -62 -5 -15 -7 -36 -5 -46 6 -22 -49
-115 -110 -187 -50 -58 -61 -83 -20 -45 53 48 177 227 168 241 -3 5 -1 8 5 8
33 0 14 -63 -42 -140 -65 -87 -216 -233 -292 -282 -84 -54 -110 -65 -101 -43
8 21 3 19 -52 -15 -27 -16 -55 -30 -62 -30 -7 0 -37 -13 -66 -30 -29 -16 -84
-38 -121 -49 -150 -42 -144 -39 -185 -121 -21 -41 -74 -160 -118 -265 -45
-104 -86 -194 -92 -200 -8 -7 -9 -4 -4 10 4 11 10 33 13 49 9 42 -12 25 -28
-22 -15 -47 -49 -115 -55 -110 -2 3 5 30 16 62 10 31 14 54 9 50 -25 -15 7
202 52 349 40 132 43 147 31 147 -6 0 -18 -8 -28 -17 -16 -16 -19 -15 -48 19
-26 30 -35 34 -50 26 -14 -8 -17 -7 -14 2 2 7 24 23 48 36 63 33 76 44 58 55
-7 5 -25 9 -40 9 -43 0 -33 17 14 25 24 4 47 13 53 20 5 8 19 15 30 17 24 4
53 57 36 67 -8 5 2 41 29 113 22 59 40 112 40 117 0 6 5 11 11 11 14 0 38 30
39 48 0 8 -16 4 -50 -13 -63 -32 -73 -32 -35 1 29 24 29 25 5 18 -14 -3 -37
-13 -52 -21 -16 -7 -28 -10 -28 -5 0 11 73 63 128 91 24 12 42 25 39 27 -3 3
-23 -4 -46 -15 -50 -26 -64 -27 -56 -2 3 11 1 22 -4 26 -22 13 60 72 132 95
32 10 38 16 43 50 4 27 19 50 50 81 41 40 44 42 62 26 17 -16 21 -15 57 3 52
26 74 27 52 2z m2000 -66 c12 -4 24 -3 27 3 9 14 51 -10 72 -41 11 -15 22 -28
27 -28 4 0 0 11 -9 25 -9 14 -14 28 -11 31 6 6 21 -13 82 -108 24 -37 76 -114
116 -173 40 -58 69 -108 65 -112 -3 -4 -13 2 -22 13 -14 18 -14 17 -3 -6 6
-14 21 -38 31 -53 20 -28 20 -28 -2 -82 -12 -30 -27 -52 -32 -49 -5 3 -12 -3
-15 -15 -7 -28 -12 -27 -44 12 -26 30 -28 31 -22 7 5 -23 3 -22 -18 8 -13 18
-53 72 -89 120 -36 48 -90 123 -119 167 -30 44 -74 102 -97 129 -24 27 -41 54
-38 58 3 5 -2 18 -11 28 -17 19 -12 46 6 34 6 -3 21 6 35 21 14 15 30 25 37
22 7 -2 22 -7 34 -11z m-3592 -22 c11 -11 26 -15 49 -11 29 5 33 3 29 -13 -5
-20 19 -20 98 1 24 6 93 17 153 25 96 13 115 13 160 0 61 -18 90 -45 111 -105
20 -59 19 -75 -10 -133 -14 -27 -25 -56 -25 -64 0 -25 -37 -87 -69 -118 -33
-31 -38 -29 -20 7 8 15 0 11 -27 -14 -65 -60 -144 -113 -246 -163 -54 -27 -98
-51 -98 -53 0 -9 71 -111 85 -123 22 -18 18 -4 -10 38 -30 44 -32 56 -5 42 10
-6 23 -25 28 -43 10 -35 85 -158 136 -222 45 -55 54 -74 26 -50 -25 22 -24 20
34 -70 21 -33 44 -64 50 -70 7 -5 20 -30 29 -55 9 -25 35 -69 57 -98 22 -29
40 -55 40 -58 0 -7 -90 61 -123 93 -16 16 -42 47 -59 70 -17 24 -43 50 -57 60
-23 15 -23 13 7 -24 18 -23 32 -46 32 -52 0 -42 -84 47 -161 172 -34 54 -63
96 -66 93 -3 -3 5 -19 17 -36 12 -17 20 -33 18 -35 -5 -5 -144 164 -183 223
-15 23 -32 42 -36 42 -12 0 -11 -57 1 -65 20 -12 9 -51 -22 -78 -23 -21 -28
-31 -20 -39 7 -7 12 -24 12 -38 0 -27 -21 -80 -31 -80 -7 0 -2 54 7 82 3 10 1
18 -4 18 -5 0 -15 -21 -22 -47 -29 -118 -77 -259 -85 -251 -3 3 8 48 24 101
16 54 25 99 21 102 -5 3 -10 -7 -12 -22 -2 -21 -8 -28 -24 -27 -18 0 -24 -9
-35 -53 -13 -55 -29 -80 -29 -44 0 23 23 148 45 241 8 36 18 91 21 122 4 46 9
58 25 63 33 11 16 15 -24 5 -20 -4 -39 -4 -42 0 -3 5 -14 6 -25 3 -11 -3 -20
0 -20 6 0 6 4 10 9 9 5 -2 8 1 8 7 -1 5 -10 8 -21 7 -30 -6 -8 16 24 23 17 4
30 10 30 15 0 5 -16 4 -36 -2 -46 -12 -52 -5 -19 24 25 21 25 23 7 28 -16 4
-18 10 -11 28 6 16 16 22 38 22 17 0 42 11 59 24 24 21 32 40 47 113 10 48 21
93 25 98 3 6 7 23 8 39 2 23 -1 27 -16 21 -9 -4 -38 -10 -63 -14 -25 -4 -63
-18 -83 -30 -42 -26 -62 -22 -22 4 40 26 31 40 -10 16 -53 -32 -52 -20 3 29
41 37 44 40 16 26 -59 -30 -33 -2 44 48 41 27 107 60 147 73 39 14 76 30 81
35 6 6 1 6 -12 -1 -27 -14 -73 -15 -73 -1 0 22 53 120 65 120 8 0 21 -7 30
-16z m5555 -19 c7 -9 8 -15 2 -15 -5 0 -12 7 -16 15 -3 8 -4 15 -2 15 2 0 9
-7 16 -15z m-6443 -131 c8 -21 -13 -42 -28 -27 -13 13 -5 43 11 43 6 0 13 -7
17 -16z m-89 -32 c-14 -36 -4 -54 16 -27 13 18 14 18 45 -4 31 -22 33 -22 52
-6 26 25 24 14 -10 -48 -16 -28 -41 -96 -55 -151 -29 -108 -31 -119 -51 -255
-18 -118 -27 -129 -38 -46 -2 17 -4 -6 -4 -50 0 -44 4 -87 8 -95 4 -8 19 -41
33 -72 14 -31 35 -62 48 -69 20 -10 19 -7 -6 20 -35 36 -30 52 5 18 31 -31 62
-41 104 -33 42 8 143 85 125 96 -8 5 -3 14 17 29 28 22 73 87 73 106 0 5 -12
-8 -26 -28 -33 -49 -40 -42 -16 14 11 25 25 69 31 99 15 69 41 307 41 377 0
45 4 54 31 77 32 27 49 33 49 16 0 -5 -5 -10 -12 -10 -9 0 -9 -3 -1 -11 9 -9
19 -9 42 1 37 15 51 7 51 -31 0 -22 5 -29 20 -29 17 0 20 7 20 48 0 62 16 89
25 41 7 -36 2 -124 -8 -149 -12 -31 -26 -93 -22 -100 6 -9 -61 -254 -77 -283
-19 -33 -65 -86 -71 -81 -3 3 -24 -30 -47 -73 -48 -88 -110 -172 -126 -173 -6
0 -24 -11 -39 -24 -39 -34 -125 -76 -155 -76 -46 0 -96 20 -123 48 -34 36 -87
144 -117 241 -22 71 -22 85 -17 260 10 272 40 416 86 404 24 -6 77 22 92 48
16 30 21 18 7 -19z m-648 -8 c0 -3 -14 -10 -30 -16 -30 -10 -37 -37 -9 -29 96
26 130 27 199 4 48 -15 53 -16 64 -1 9 12 16 14 27 7 11 -8 11 -12 1 -16 -16
-6 3 -33 24 -33 7 0 18 -8 23 -17 10 -17 10 -17 11 0 0 12 4 15 13 10 6 -4 21
-8 32 -8 23 0 24 -21 3 -102 -13 -53 -28 -79 -28 -50 0 10 -5 17 -11 17 -7 0
-8 -7 -4 -17 4 -10 9 -57 12 -104 4 -68 2 -98 -13 -140 -10 -30 -17 -60 -16
-67 3 -15 -43 -82 -92 -135 -40 -42 -42 -47 -23 -47 7 0 37 32 66 70 28 39 54
70 57 70 13 0 -12 -49 -45 -90 -65 -82 -134 -141 -157 -135 -13 3 -32 -4 -48
-16 -26 -20 -37 -14 -14 9 18 18 3 14 -38 -10 -30 -18 -55 -22 -138 -24 -156
-3 -180 18 -200 186 -8 58 -16 94 -23 93 -8 -2 -9 8 -2 30 4 18 13 71 18 118
16 139 78 256 200 374 28 28 63 55 79 62 29 13 62 17 62 7z m-311 -36 c-15
-29 -49 -73 -49 -64 0 8 51 86 57 86 2 0 -2 -10 -8 -22z m6367 -25 c-8 -16
-22 -37 -31 -48 -15 -19 -16 -19 -4 5 16 32 40 70 45 70 3 0 -2 -12 -10 -27z
m-5776 -3 c0 -5 -4 -10 -10 -10 -5 0 -10 5 -10 10 0 6 5 10 10 10 6 0 10 -4
10 -10z m-1045 -19 c3 -5 -3 -17 -12 -27 -17 -16 -18 -16 -21 -1 -2 9 -8 17
-13 17 -5 0 -9 5 -9 10 0 13 47 13 55 1z m6383 -28 c-5 -24 -21 -26 -36 -3
-11 18 -10 20 14 20 18 0 25 -5 22 -17z m-2818 -46 c0 -2 -7 -26 -16 -53 -19
-57 -34 -78 -34 -47 0 12 -5 23 -12 25 -7 3 -1 18 18 41 25 31 44 46 44 34z
m-3280 -130 c0 -28 -39 -98 -68 -122 -23 -19 -34 -24 -29 -13 17 47 97 157 97
135z m6361 -60 c-11 -32 -66 -95 -75 -86 -3 2 14 35 37 72 43 68 57 74 38 14z
m-4471 7 c0 -11 -5 -14 -16 -10 -9 3 -18 6 -20 6 -3 0 -2 5 1 10 10 16 35 12
35 -6z m-2249 -57 c-10 -9 -11 -8 -5 6 3 10 9 15 12 12 3 -3 0 -11 -7 -18z
m1773 -239 c-9 -32 -66 -118 -77 -118 -5 0 1 15 12 33 12 17 31 49 43 70 25
42 33 47 22 15z m152 -34 c-4 -9 -9 -15 -11 -12 -3 3 -3 13 1 22 4 9 9 15 11
12 3 -3 3 -13 -1 -22z m1904 19 c-1 -5 -8 -19 -16 -33 -8 -14 -13 -17 -10 -7
3 10 6 25 6 33 0 8 5 14 10 14 6 0 10 -3 10 -7z m-2168 -104 c-18 -16 -30 -34
-27 -39 4 -6 -7 -10 -24 -10 -39 0 -40 14 -2 30 16 6 39 22 52 36 12 13 25 21
28 18 3 -3 -9 -19 -27 -35z m880 14 c31 -37 31 -47 1 -23 -18 14 -32 28 -32
33 -1 13 16 7 31 -10z m-1819 -160 c-15 -43 -54 -58 -81 -31 -19 19 -14 28 16
28 15 0 34 5 42 10 22 15 30 12 23 -7z m1027 1 c-8 -8 -23 -20 -34 -25 -15 -7
-13 -3 7 15 31 29 47 35 27 10z m1950 -114 c0 -30 -27 -90 -41 -90 -6 0 -9 6
-6 14 3 8 11 32 18 55 13 43 29 55 29 21z m2602 -67 c-5 -10 -7 -23 -5 -29 2
-6 -12 -23 -32 -38 -19 -15 -35 -25 -35 -22 0 17 56 106 67 106 10 0 11 -5 5
-17z m-6400 -36 c-3 -28 -11 -41 -28 -49 -13 -6 -24 -15 -24 -20 0 -4 -5 -8
-10 -8 -12 0 -3 20 37 83 14 22 26 37 27 35 2 -1 1 -20 -2 -41z m-2945 -6089
c-3 -7 -5 -2 -5 12 0 14 2 19 5 13 2 -7 2 -19 0 -25z m770 -85 c-3 -2 -15 0
-26 7 -26 13 -27 3 -3 -23 9 -11 11 -17 5 -13 -9 5 -13 -1 -13 -18 0 -19 5
-26 20 -26 11 0 20 -5 20 -11 0 -6 -9 -9 -20 -6 -11 3 -20 1 -20 -4 0 -5 9 -9
20 -9 16 0 20 -6 18 -29 -2 -25 -5 -28 -17 -18 -8 7 -22 12 -32 12 -10 0 -18
5 -18 10 1 6 5 9 10 8 12 -4 11 4 -2 28 -7 15 -7 29 0 51 7 20 7 36 0 49 -10
19 -2 23 39 22 6 -1 13 7 13 16 1 9 4 3 6 -12 3 -16 2 -31 0 -34z m-1712 -402
c-3 -6 -11 -11 -17 -11 -6 0 -6 6 2 15 14 17 26 13 15 -4z m1112 -33 c-3 -7
-5 -2 -5 12 0 14 2 19 5 13 2 -7 2 -19 0 -25z m3 -206 c-1 -92 -1 -172 0 -177
6 -26 -1 -85 -9 -85 -9 0 -14 381 -5 413 12 40 14 8 14 -151z m575 -29 c-9
-36 -14 -41 -25 -23 -17 26 -11 50 11 50 18 0 20 -4 14 -27z m94 -190 c-20
-57 -22 -59 -29 -23 -7 42 -4 50 20 50 17 0 18 -4 9 -27z m170 -76 c8 -11 6
-18 -9 -32 -20 -18 -20 -17 -20 13 0 34 10 41 29 19z m-839 -64 c0 -26 -3 -43
-7 -39 -5 4 -8 27 -8 51 0 24 3 41 8 38 4 -2 7 -25 7 -50z m821 -50 c-9 -16
-10 -14 -11 12 0 21 3 26 11 18 8 -8 8 -16 0 -30z m-157 -32 c26 -28 17 -66
-14 -66 -20 0 -26 6 -28 28 -7 55 12 71 42 38z m-1264 -163 c0 -21 -4 -38 -8
-38 -5 0 -8 22 -8 50 0 28 3 45 8 37 4 -6 8 -29 8 -49z m587 -50 c-2 -13 -4
-5 -4 17 -1 22 1 32 4 23 2 -10 2 -28 0 -40z m-837 -4 c0 -12 -9 -14 -42 -12
-59 4 -63 28 -4 28 35 0 46 -4 46 -16z m1486 -60 c-3 -8 -10 -14 -16 -14 -14
0 -13 33 3 49 10 10 13 9 15 -4 2 -9 1 -23 -2 -31z m-1236 6 c0 -5 -5 -10 -11
-10 -5 0 -7 5 -4 10 3 6 8 10 11 10 2 0 4 -4 4 -10z m587 -12 c-3 -8 -6 -5 -6
6 -1 11 2 17 5 13 3 -3 4 -12 1 -19z m-1961 -42 c-10 -19 -29 -39 -43 -45 -35
-16 -37 -9 -4 13 15 10 33 32 40 48 7 16 16 26 19 23 3 -3 -2 -21 -12 -39z
m1963 -61 l0 -20 -9 20 c-5 11 -9 27 -9 35 -1 13 0 13 9 0 5 -8 9 -24 9 -35z
m1 -80 c0 -8 -2 -15 -4 -15 -2 0 -6 7 -10 15 -3 8 -1 15 4 15 6 0 10 -7 10
-15z m668 3 c7 -7 12 -31 12 -55 0 -39 -2 -43 -24 -43 -20 0 -24 6 -29 42 -7
56 13 84 41 56z m-659 -120 c6 -16 5 -27 -4 -37 -17 -18 -35 -6 -35 23 0 41
25 50 39 14z m671 -144 c12 -32 12 -57 0 -26 -5 12 -13 22 -18 22 -15 0 -34
-28 -28 -39 4 -5 2 -12 -4 -16 -11 -7 -14 67 -3 78 15 16 44 6 53 -19z m-1720
-178 c0 -7 -11 -18 -25 -24 -48 -22 -59 -11 -25 26 20 22 50 20 50 -2z m-1450
-6 c0 -5 -8 -10 -17 -10 -15 0 -16 2 -3 10 19 12 20 12 20 0z m740 -14 c0 -12
-14 -15 -60 -15 -64 1 -82 15 -27 22 70 9 87 7 87 -7z m-165 -6 c4 -6 -6 -10
-23 -10 -16 0 -44 -3 -61 -6 -24 -5 -31 -3 -31 10 0 13 11 16 54 16 30 0 58
-4 61 -10z m2580 -43 c1 -17 5 -40 10 -49 5 -13 3 -18 -10 -18 -39 0 -59 65
-29 95 20 20 27 14 29 -28z m541 -198 c11 -19 -18 -29 -83 -29 -60 0 -81 9
-68 30 9 14 142 13 151 -1z m7247 -114 c-7 -21 -13 -19 -13 6 0 11 4 18 10 14
5 -3 7 -12 3 -20z"/>
<path d="M18776 14745 c-3 -9 0 -15 9 -15 9 0 12 6 9 15 -4 8 -7 15 -9 15 -2
0 -5 -7 -9 -15z"/>
<path d="M19128 15253 c-2 -186 0 -343 4 -349 6 -7 66 9 190 51 l183 62 3 209
2 210 -180 77 c-99 42 -184 77 -189 77 -7 0 -11 -124 -13 -337z"/>
<path d="M18020 13550 l0 -31 58 3 c54 3 57 4 60 31 3 27 3 27 -57 27 l-61 0
0 -30z"/>
<path d="M19720 13550 l0 -30 65 0 65 0 0 30 0 30 -65 0 -65 0 0 -30z"/>
<path d="M15621 12890 c-33 -27 -73 -69 -89 -92 -43 -65 -47 -77 -12 -38 105
115 126 136 156 152 34 18 43 14 57 -24 7 -19 27 -25 27 -8 0 24 -34 60 -56
60 -13 0 -49 -21 -83 -50z"/>
<path d="M15670 12886 c0 -3 9 -15 20 -26 26 -26 32 -25 28 3 -2 14 -11 23
-25 25 -13 2 -23 1 -23 -2z"/>
<path d="M15775 12440 c3 -5 8 -10 11 -10 2 0 4 5 4 10 0 6 -5 10 -11 10 -5 0
-7 -4 -4 -10z"/>
<path d="M17091 12414 c0 -11 3 -14 6 -6 3 7 2 16 -1 19 -3 4 -6 -2 -5 -13z"/>
<path d="M15784 12364 c3 -9 6 -34 7 -57 1 -42 1 -42 9 -10 9 38 2 83 -12 83
-6 0 -7 -7 -4 -16z"/>
<path d="M15730 12361 c0 -6 5 -13 10 -16 6 -3 10 1 10 9 0 9 -4 16 -10 16 -5
0 -10 -4 -10 -9z"/>
<path d="M17082 12330 c0 -14 2 -19 5 -12 2 6 2 18 0 25 -3 6 -5 1 -5 -13z"/>
<path d="M15753 12235 c0 -33 2 -45 4 -27 2 18 2 45 0 60 -2 15 -4 0 -4 -33z"/>
<path d="M17081 12254 c0 -11 3 -14 6 -6 3 7 2 16 -1 19 -3 4 -6 -2 -5 -13z"/>
<path d="M15750 12141 c0 -6 5 -13 10 -16 6 -3 10 1 10 9 0 9 -4 16 -10 16 -5
0 -10 -4 -10 -9z"/>
<path d="M15550 12096 c0 -9 5 -16 10 -16 6 0 10 4 10 9 0 6 -4 13 -10 16 -5
3 -10 -1 -10 -9z"/>
<path d="M15750 12096 c0 -8 5 -18 10 -21 6 -3 10 3 10 14 0 12 -4 21 -10 21
-5 0 -10 -6 -10 -14z"/>
<path d="M15336 12058 c-27 -38 -140 -219 -176 -283 -18 -33 -48 -72 -65 -87
-37 -31 -111 -135 -102 -144 3 -3 18 13 33 35 14 23 31 41 36 41 10 0 6 -9
-25 -53 -10 -16 -16 -31 -12 -35 4 -4 10 -1 13 6 2 8 17 28 32 45 39 45 110
157 110 174 0 14 82 159 148 261 34 53 40 83 8 40z"/>
<path d="M15831 11794 c0 -11 3 -14 6 -6 3 7 2 16 -1 19 -3 4 -6 -2 -5 -13z"/>
<path d="M16860 11639 c0 -5 5 -7 10 -4 6 3 10 8 10 11 0 2 -4 4 -10 4 -5 0
-10 -5 -10 -11z"/>
<path d="M15720 11352 c0 -7 14 -26 31 -44 32 -34 29 -25 -9 26 -12 16 -22 24
-22 18z"/>
<path d="M23631 12723 c0 -5 19 -21 41 -38 23 -16 52 -51 66 -77 31 -58 41
-55 18 6 -20 52 -128 146 -125 109z"/>
<path d="M23498 12685 c12 -9 44 -20 71 -24 26 -4 68 -17 92 -29 44 -22 68
-20 36 3 -20 14 -133 50 -187 60 -34 5 -35 5 -12 -10z"/>
<path d="M23660 12565 c0 -4 10 -20 23 -35 12 -15 27 -36 33 -46 11 -18 13
-17 25 9 11 25 10 30 -7 47 -20 19 -74 38 -74 25z"/>
<path d="M23065 12535 c-159 -15 -215 -25 -215 -36 0 -8 33 -6 135 7 93 12
160 15 145 6 -24 -15 -212 -47 -334 -57 -21 -2 -42 -7 -46 -12 -3 -4 -15 -37
-24 -73 -10 -36 -34 -112 -53 -170 -82 -248 -64 -225 -178 -235 -129 -12 -159
-25 -45 -19 97 5 260 30 355 55 49 14 213 76 240 93 34 20 136 59 141 53 6 -6
-90 -61 -123 -72 -33 -10 -29 -29 5 -20 43 10 251 116 285 144 84 71 108 96
143 148 24 34 34 58 28 60 -9 3 -8 12 3 34 8 16 13 36 10 43 -7 19 -97 44
-182 51 -38 3 -90 7 -115 9 -25 2 -103 -2 -175 -9z m418 -176 c-32 -56 -243
-232 -259 -216 -3 2 26 26 63 53 37 27 99 81 138 121 38 40 71 73 73 73 2 0
-5 -14 -15 -31z"/>
<path d="M22760 12490 c0 -7 14 -8 38 -4 51 9 53 14 4 14 -23 0 -42 -5 -42
-10z"/>
<path d="M22300 12470 c-13 -8 -13 -10 2 -10 9 0 20 5 23 10 8 13 -5 13 -25 0z"/>
<path d="M23737 12443 c-4 -3 -7 -16 -7 -28 0 -11 -5 -26 -11 -32 -6 -6 -9
-17 -7 -24 4 -12 48 62 48 81 0 11 -13 13 -23 3z"/>
<path d="M23230 12110 c-8 -5 -12 -11 -9 -14 3 -3 14 1 25 9 21 16 8 20 -16 5z"/>
<path d="M22518 11564 c13 -25 42 -50 42 -37 0 5 -12 20 -26 34 -24 21 -26 22
-16 3z"/>
<path d="M22407 11393 c-8 -10 -19 -31 -23 -47 -6 -26 -5 -27 13 -17 11 5 23
25 27 42 8 39 4 44 -17 22z"/>
<path d="M23130 11202 c6 -13 14 -21 18 -18 3 4 -2 14 -12 24 -18 16 -18 16
-6 -6z"/>
<path d="M23000 11001 c5 -11 15 -23 21 -27 6 -3 3 5 -6 20 -20 30 -30 35 -15
7z"/>
<path d="M23390 10713 c0 -13 62 -95 67 -89 2 2 -12 25 -31 51 -20 25 -36 43
-36 38z"/>
<path d="M19218 12746 c-24 -17 -23 -26 3 -26 11 0 29 -5 40 -10 25 -14 26 10
1 33 -22 20 -22 20 -44 3z"/>
<path d="M19240 12660 c0 -5 5 -10 11 -10 5 0 7 5 4 10 -3 6 -8 10 -11 10 -2
0 -4 -4 -4 -10z"/>
<path d="M18948 12528 c-49 -62 -155 -234 -202 -325 -33 -66 -6 -30 59 78 37
61 91 146 119 188 63 91 69 101 62 101 -2 0 -20 -19 -38 -42z"/>
<path d="M18842 12495 c-13 -20 -21 -39 -18 -42 7 -7 48 57 44 69 -2 6 -14 -6
-26 -27z"/>
<path d="M18810 11980 c0 -5 7 -10 16 -10 8 0 12 5 9 10 -3 6 -10 10 -16 10
-5 0 -9 -4 -9 -10z"/>
<path d="M19129 11653 c-14 -17 -49 -88 -49 -98 0 -3 4 -5 8 -5 9 0 65 110 59
116 -2 2 -10 -4 -18 -13z"/>
<path d="M19170 11541 c-25 -52 -79 -139 -120 -194 -102 -135 -110 -148 -66
-107 83 77 245 341 234 383 -2 7 -23 -30 -48 -82z"/>
<path d="M18885 11420 c-16 -21 -58 -72 -93 -114 -35 -42 -57 -73 -50 -70 15
7 182 214 176 219 -1 1 -16 -14 -33 -35z"/>
<path d="M18530 11098 c0 -13 19 -19 45 -12 36 9 31 19 -10 19 -19 0 -35 -3
-35 -7z"/>
<path d="M18452 10841 c12 -39 125 -76 135 -45 2 7 -13 11 -41 10 -34 -1 -51
5 -72 24 -15 14 -25 19 -22 11z"/>
<path d="M20595 12370 c-4 -7 3 -8 22 -4 38 9 42 14 10 14 -14 0 -29 -5 -32
-10z"/>
<path d="M20905 12349 c-17 -8 -16 -8 7 -4 16 3 32 -1 42 -10 21 -21 28 -19
14 5 -14 22 -31 24 -63 9z"/>
<path d="M20730 12320 c0 -5 5 -10 10 -10 6 0 10 5 10 10 0 6 -4 10 -10 10 -5
0 -10 -4 -10 -10z"/>
<path d="M20925 12320 c3 -5 8 -10 11 -10 2 0 4 5 4 10 0 6 -5 10 -11 10 -5 0
-7 -4 -4 -10z"/>
<path d="M19908 12273 c7 -3 16 -2 19 1 4 3 -2 6 -13 5 -11 0 -14 -3 -6 -6z"/>
<path d="M19868 12263 c7 -3 16 -2 19 1 4 3 -2 6 -13 5 -11 0 -14 -3 -6 -6z"/>
<path d="M19800 12250 c-13 -9 -13 -10 0 -10 8 0 22 5 30 10 13 9 13 10 0 10
-8 0 -22 -5 -30 -10z"/>
<path d="M19758 12233 c7 -3 16 -2 19 1 4 3 -2 6 -13 5 -11 0 -14 -3 -6 -6z"/>
<path d="M19670 12218 c-19 -6 -30 -12 -24 -14 5 -3 28 2 50 10 45 17 26 19
-26 4z"/>
<path d="M20206 11684 c-4 -14 -5 -28 -3 -31 3 -2 8 8 11 23 4 14 5 28 3 31
-3 2 -8 -8 -11 -23z"/>
<path d="M20183 11606 c-6 -20 -7 -36 -2 -36 10 0 23 44 17 61 -2 6 -9 -5 -15
-25z"/>
<path d="M19843 11170 c-6 -17 -8 -30 -3 -30 8 0 24 50 18 56 -2 2 -9 -10 -15
-26z"/>
<path d="M19785 10690 c-9 -17 -14 -37 -11 -43 2 -7 5 -4 5 6 1 10 5 16 10 13
8 -5 23 45 16 52 -2 2 -11 -10 -20 -28z"/>
<path d="M19716 10605 c-9 -26 -7 -32 5 -12 6 10 9 21 6 23 -2 3 -7 -2 -11
-11z"/>
<path d="M17995 12234 c-9 -15 -12 -23 -6 -20 11 7 35 46 28 46 -3 0 -12 -12
-22 -26z"/>
<path d="M17880 11908 c-13 -23 -49 -76 -80 -118 -31 -41 -90 -131 -130 -200
-40 -69 -87 -144 -103 -168 -16 -24 -27 -45 -24 -48 2 -3 12 7 21 20 10 16 22
23 32 19 8 -3 28 4 44 15 25 19 85 51 188 101 32 15 33 18 28 56 -3 22 -9 65
-12 95 -3 30 -7 56 -9 58 -1 1 -22 -25 -46 -59 -48 -66 -95 -123 -83 -99 11
22 78 123 130 196 25 35 43 68 40 73 -3 5 6 30 20 55 14 25 22 46 17 46 -5 0
-20 -19 -33 -42z m-200 -382 c0 -3 -4 -8 -10 -11 -5 -3 -10 -1 -10 4 0 6 5 11
10 11 6 0 10 -2 10 -4z m-66 -80 c-9 -15 -19 -25 -21 -22 -5 5 30 56 35 51 2
-2 -4 -15 -14 -29z"/>
<path d="M17497 11893 c-4 -3 -7 -11 -7 -17 0 -6 5 -5 12 2 6 6 9 14 7 17 -3
3 -9 2 -12 -2z"/>
<path d="M17816 11225 c-11 -8 -15 -15 -10 -15 6 0 19 7 30 15 10 8 15 14 9
14 -5 0 -19 -6 -29 -14z"/>
<path d="M17187 10713 c-4 -3 -7 -13 -7 -22 1 -13 3 -13 11 2 11 19 8 33 -4
20z"/>
<path d="M20710 11800 c0 -5 5 -10 10 -10 6 0 10 5 10 10 0 6 -4 10 -10 10 -5
0 -10 -4 -10 -10z"/>
<path d="M21225 11569 c-11 -17 -2 -18 19 -3 17 12 17 14 4 14 -9 0 -20 -5
-23 -11z"/>
<path d="M21550 11560 c-13 -8 -13 -10 2 -10 9 0 20 5 23 10 8 13 -5 13 -25 0z"/>
<path d="M21605 11549 c-27 -10 -37 -17 -21 -14 31 7 97 33 81 33 -5 0 -32 -8
-60 -19z"/>
<path d="M21157 11544 c-16 -9 -27 -18 -24 -20 5 -5 77 24 77 31 0 9 -25 4
-53 -11z"/>
<path d="M21495 11540 c-3 -5 -1 -10 4 -10 6 0 11 5 11 10 0 6 -2 10 -4 10 -3
0 -8 -4 -11 -10z"/>
<path d="M21525 11520 c-3 -6 1 -7 9 -4 18 7 21 14 7 14 -6 0 -13 -4 -16 -10z"/>
<path d="M21050 11495 c-7 -8 -8 -15 -2 -15 5 0 15 7 22 15 7 8 8 15 2 15 -5
0 -15 -7 -22 -15z"/>
<path d="M21480 11460 c-8 -5 -10 -10 -5 -10 6 0 17 5 25 10 8 5 11 10 5 10
-5 0 -17 -5 -25 -10z"/>
<path d="M21000 11240 c-19 -11 -28 -19 -20 -19 8 0 31 8 50 19 19 11 28 19
20 19 -8 0 -31 -8 -50 -19z"/>
<path d="M20924 11210 c-21 -8 -42 -30 -29 -30 10 0 65 30 65 35 0 7 -11 5
-36 -5z"/>
<path d="M21057 11143 c-7 -12 -19 -103 -13 -103 6 0 28 102 22 107 -2 2 -6 1
-9 -4z"/>
<path d="M21012 11070 c-29 -46 0 -161 43 -169 18 -3 18 -1 -5 24 -22 23 -25
36 -25 96 0 38 0 69 0 69 0 0 -6 -9 -13 -20z"/>
<path d="M21175 10913 c-34 -8 -38 -20 -5 -15 16 2 30 8 30 13 0 5 -1 8 -2 8
-2 -1 -12 -3 -23 -6z"/>
<path d="M21090 10890 c-18 -12 -2 -12 25 0 13 6 15 9 5 9 -8 0 -22 -4 -30 -9z"/>
<path d="M18028 11028 c-2 -7 -1 -26 3 -43 6 -28 7 -26 8 13 1 42 -3 53 -11
30z"/>
<path d="M18036 10910 c4 -25 11 -49 16 -55 5 -6 6 7 2 35 -4 25 -11 50 -16
55 -5 6 -6 -7 -2 -35z"/>
<path d="M20630 10060 c-17 -34 -29 -64 -27 -66 3 -3 19 23 36 57 18 33 30 63
27 66 -2 3 -19 -23 -36 -57z"/>
<path d="M21186 10033 c-6 -14 -5 -15 5 -6 7 7 10 15 7 18 -3 3 -9 -2 -12 -12z"/>
<path d="M21436 9962 l-19 -27 24 22 c12 12 21 24 18 27 -2 2 -13 -8 -23 -22z"/>
<path d="M21399 9913 c-13 -16 -12 -17 4 -4 9 7 17 15 17 17 0 8 -8 3 -21 -13z"/>
<path d="M21347 9868 c-102 -144 -182 -277 -172 -286 3 -3 44 15 91 39 l86 44
-7 55 c-8 65 -11 70 -29 44 -8 -10 -22 -28 -31 -39 -31 -39 12 36 59 101 24
34 41 66 38 71 -4 6 -19 -7 -35 -29z"/>
<path d="M20965 9690 c3 -5 8 -10 11 -10 2 0 4 5 4 10 0 6 -5 10 -11 10 -5 0
-7 -4 -4 -10z"/>
<path d="M20986 9667 c-14 -10 -16 -16 -7 -22 15 -9 35 8 30 24 -3 8 -10 7
-23 -2z"/>
<path d="M21479 9579 l-24 -20 30 17 c39 24 40 24 28 24 -6 0 -21 -9 -34 -21z"/>
<path d="M21461 9274 c0 -11 3 -14 6 -6 3 7 2 16 -1 19 -3 4 -6 -2 -5 -13z"/>
<path d="M16197 10288 c-14 -18 -30 -44 -37 -58 -10 -22 -9 -21 13 5 29 35 61
85 53 85 -3 0 -16 -15 -29 -32z"/>
<path d="M15702 9264 c-18 -37 -31 -68 -29 -70 2 -2 20 28 41 66 20 39 34 70
29 70 -5 0 -23 -30 -41 -66z"/>
<path d="M15624 9129 c-9 -18 -25 -48 -35 -66 -10 -18 -16 -33 -13 -33 2 0 -4
-10 -16 -22 -11 -12 -20 -30 -20 -39 0 -10 -4 -19 -10 -21 -5 -1 -6 -9 -2 -16
5 -8 29 29 66 104 32 63 56 118 53 121 -3 2 -13 -10 -23 -28z"/>
<path d="M15490 8890 c-6 -11 -8 -20 -6 -20 3 0 10 9 16 20 6 11 8 20 6 20 -3
0 -10 -9 -16 -20z"/>
<path d="M22583 10278 c-18 -23 -63 -98 -59 -98 8 0 78 101 74 106 -3 2 -10
-1 -15 -8z"/>
<path d="M22094 9273 c-39 -80 -40 -84 -6 -33 29 45 48 90 38 90 -2 0 -17 -26
-32 -57z"/>
<path d="M21997 9100 c-21 -40 -42 -79 -48 -86 -6 -7 -9 -21 -7 -30 2 -10 23
20 51 75 27 50 47 97 44 104 -2 6 -20 -22 -40 -63z"/>
<path d="M20160 10161 c0 -6 10 -11 23 -11 25 0 54 -16 46 -25 -4 -3 -18 -1
-32 4 -38 15 -161 -2 -336 -47 -166 -42 -166 -42 -204 -124 -9 -21 -13 -38 -8
-38 23 0 -17 -146 -65 -242 -13 -26 -24 -49 -24 -52 0 -3 25 4 57 15 65 22 66
22 58 9 -6 -10 103 27 141 48 10 6 44 22 74 35 48 21 105 59 233 157 15 12 27
27 27 33 1 17 70 93 70 77 0 -8 -14 -29 -32 -47 -18 -18 -27 -33 -21 -33 6 0
25 16 42 36 30 34 31 39 29 115 -1 44 -4 81 -7 83 -20 12 -71 16 -71 7z m46
-66 l26 -24 -22 -36 c-12 -19 -23 -35 -25 -35 -2 0 -3 16 -2 36 1 25 -4 39
-17 46 -13 8 -15 13 -5 24 15 18 13 18 45 -11z"/>
<path d="M20310 10113 c0 -13 5 -23 10 -23 13 0 13 11 0 30 -8 12 -10 11 -10
-7z"/>
<path d="M19528 9953 c7 -3 16 -2 19 1 4 3 -2 6 -13 5 -11 0 -14 -3 -6 -6z"/>
<path d="M19622 9885 c-17 -37 -14 -45 4 -12 9 16 14 31 11 33 -2 2 -9 -7 -15
-21z"/>
<path d="M19586 9804 c-9 -20 -15 -39 -12 -41 3 -3 12 12 21 32 20 49 14 56
-9 9z"/>
<path d="M20010 9630 c-8 -5 -12 -12 -9 -15 4 -3 12 1 19 10 14 17 11 19 -10
5z"/>
<path d="M18719 10166 c27 -29 33 -32 25 -13 -2 7 -14 19 -27 26 -21 13 -21
12 2 -13z"/>
<path d="M18628 10163 c6 -2 18 -2 25 0 6 3 1 5 -13 5 -14 0 -19 -2 -12 -5z"/>
<path d="M18705 10140 c3 -5 8 -10 11 -10 2 0 4 5 4 10 0 6 -5 10 -11 10 -5 0
-7 -4 -4 -10z"/>
<path d="M18710 10093 c1 -11 26 -43 34 -43 16 0 0 45 -16 48 -10 2 -18 0 -18
-5z"/>
<path d="M18425 10062 c-26 -4 -27 -5 -10 -12 21 -7 21 -7 -134 -52 l-45 -13
-23 -120 c-12 -66 -27 -127 -31 -135 -5 -8 -31 -20 -58 -27 l-49 -12 47 5 c70
8 195 51 253 88 85 55 105 62 60 20 -36 -33 -37 -35 -10 -21 30 15 106 90 158
155 15 19 27 30 27 25 0 -5 -14 -25 -31 -46 -17 -20 -23 -34 -15 -31 27 10 73
96 72 134 -1 27 -6 35 -26 41 -28 8 -139 9 -185 1z"/>
<path d="M18325 10043 c-11 -3 -24 -9 -29 -13 -4 -5 11 -4 35 1 24 6 45 12 48
15 5 5 -27 3 -54 -3z"/>
<path d="M18745 10020 c-3 -5 -1 -10 4 -10 6 0 11 5 11 10 0 6 -2 10 -4 10 -3
0 -8 -4 -11 -10z"/>
<path d="M18520 9855 c-7 -8 -8 -15 -2 -15 5 0 15 7 22 15 7 8 8 15 2 15 -5 0
-15 -7 -22 -15z"/>
<path d="M18117 9394 c-4 -4 -7 -14 -7 -23 0 -11 3 -12 11 -4 6 6 10 16 7 23
-2 6 -7 8 -11 4z"/>
<path d="M17741 9734 c0 -11 3 -14 6 -6 3 7 2 16 -1 19 -3 4 -6 -2 -5 -13z"/>
<path d="M17140 9152 c0 -20 85 -80 98 -68 3 3 3 7 1 9 -2 1 -25 17 -51 35
-27 18 -48 29 -48 24z"/>
<path d="M16598 9895 c-63 -23 -84 -44 -136 -128 -99 -163 -123 -227 -126
-336 -1 -60 1 -67 31 -99 29 -31 37 -34 75 -30 24 3 52 8 62 13 16 7 18 5 13
-8 -8 -22 -4 -22 46 9 128 79 181 176 182 334 0 126 -11 172 -55 220 -41 44
-40 44 -92 25z"/>
<path d="M16456 9838 c-38 -44 -90 -131 -107 -176 l-9 -27 20 25 c11 14 27 41
36 60 9 19 36 63 60 98 24 34 42 62 39 62 -2 0 -20 -19 -39 -42z"/>
<path d="M16679 9313 c-13 -16 -12 -17 4 -4 9 7 17 15 17 17 0 8 -8 3 -21 -13z"/>
<path d="M16438 9263 c7 -3 16 -2 19 1 4 3 -2 6 -13 5 -11 0 -14 -3 -6 -6z"/>
<path d="M16290 9210 c0 -9 51 -32 57 -26 3 3 2 9 -1 14 -7 12 -56 22 -56 12z"/>
<path d="M16410 9200 c0 -13 11 -13 30 0 12 8 11 10 -7 10 -13 0 -23 -4 -23
-10z"/>
<path d="M3172 23790 c0 -14 2 -19 5 -12 2 6 2 18 0 25 -3 6 -5 1 -5 -13z"/>
<path d="M2965 23740 c-3 -4 6 -10 20 -12 14 -3 25 -2 25 2 0 11 -39 20 -45
10z"/>
<path d="M3145 23740 c3 -5 13 -10 21 -10 8 0 14 5 14 10 0 6 -9 10 -21 10
-11 0 -17 -4 -14 -10z"/>
<path d="M2940 23693 c0 -7 7 -13 15 -13 8 0 15 6 15 13 0 8 -7 14 -15 14 -8
0 -15 -6 -15 -14z"/>
<path d="M3145 23521 c-6 -20 13 -61 27 -61 5 0 8 7 8 16 0 8 -4 12 -10 9 -5
-3 -10 0 -10 9 0 8 5 16 12 18 12 4 3 28 -12 28 -5 0 -11 -9 -15 -19z"/>
<path d="M3105 23470 c-3 -5 -1 -10 4 -10 6 0 11 5 11 10 0 6 -2 10 -4 10 -3
0 -8 -4 -11 -10z"/>
<path d="M3065 23440 c3 -5 11 -10 16 -10 6 0 7 5 4 10 -3 6 -11 10 -16 10 -6
0 -7 -4 -4 -10z"/>
<path d="M3001 23341 c-6 -11 -7 -22 -2 -25 5 -3 11 4 14 16 8 30 1 35 -12 9z"/>
<path d="M3135 23280 c-3 -5 -1 -10 4 -10 6 0 11 5 11 10 0 6 -2 10 -4 10 -3
0 -8 -4 -11 -10z"/>
<path d="M1795 23050 c-3 -5 -1 -10 4 -10 6 0 11 5 11 10 0 6 -2 10 -4 10 -3
0 -8 -4 -11 -10z"/>
<path d="M2225 22870 c3 -5 8 -10 11 -10 2 0 4 5 4 10 0 6 -5 10 -11 10 -5 0
-7 -4 -4 -10z"/>
<path d="M2430 22820 c0 -11 5 -20 10 -20 6 0 10 9 10 20 0 11 -4 20 -10 20
-5 0 -10 -9 -10 -20z"/>
<path d="M2070 22804 c0 -8 5 -12 10 -9 6 3 10 10 10 16 0 5 -4 9 -10 9 -5 0
-10 -7 -10 -16z"/>
<path d="M1775 22760 c0 -23 -2 -43 -6 -45 -9 -6 -3 -50 7 -48 5 1 10 11 12
23 2 11 10 20 18 20 8 0 14 5 14 11 0 5 5 7 10 4 11 -7 40 12 40 25 0 18 -35
20 -47 4 -7 -10 -13 -14 -13 -8 0 5 -8 19 -18 32 l-18 23 1 -41z"/>
<path d="M2640 22770 c0 -16 -4 -30 -10 -30 -5 0 -10 -5 -10 -11 0 -8 6 -7 17
2 13 11 17 11 20 2 3 -7 16 -13 29 -13 27 0 32 -26 14 -61 -8 -15 -7 -19 5
-19 11 0 15 12 15 50 0 49 -1 50 -30 50 -27 0 -30 3 -30 30 0 17 -4 30 -10 30
-5 0 -10 -13 -10 -30z"/>
<path d="M1902 22731 c-10 -6 -10 -10 3 -21 13 -11 15 -9 15 9 0 24 0 24 -18
12z"/>
<path d="M2010 22720 c-13 -8 -13 -10 2 -10 9 0 20 5 23 10 8 13 -5 13 -25 0z"/>
<path d="M2092 22721 c-10 -6 -7 -10 11 -15 14 -3 33 -9 43 -13 14 -5 13 -2
-4 15 -24 24 -31 26 -50 13z"/>
<path d="M2830 22684 c0 -19 -4 -43 -10 -53 -5 -11 -6 -30 0 -47 8 -27 8 -27
9 14 1 23 5 42 10 42 4 0 8 18 8 40 0 22 -4 40 -8 40 -5 0 -9 -16 -9 -36z"/>
<path d="M2306 22685 c4 -8 10 -12 15 -9 14 8 10 24 -6 24 -9 0 -12 -6 -9 -15z"/>
<path d="M2405 22670 c4 -12 2 -20 -5 -20 -15 0 -9 -62 7 -67 7 -3 16 12 22
34 7 25 7 39 1 41 -6 2 -10 10 -10 18 0 8 -5 14 -11 14 -6 0 -8 -9 -4 -20z
m20 -30 c-3 -5 -12 -10 -18 -10 -7 0 -6 4 3 10 19 12 23 12 15 0z"/>
<path d="M2340 22629 c0 -5 5 -7 10 -4 6 3 10 8 10 11 0 2 -4 4 -10 4 -5 0
-10 -5 -10 -11z"/>
<path d="M2520 22611 c-25 -4 -35 -11 -35 -24 0 -10 -7 -22 -15 -27 -8 -5 -11
-13 -6 -17 5 -4 11 -2 13 5 3 6 11 12 18 12 7 0 15 7 19 15 3 8 17 15 31 15
14 0 25 4 25 9 0 15 -12 18 -50 12z"/>
<path d="M2350 22570 c0 -5 5 -10 10 -10 6 0 10 5 10 10 0 6 -4 10 -10 10 -5
0 -10 -4 -10 -10z"/>
<path d="M2520 22540 c0 -5 4 -10 9 -10 6 0 13 5 16 10 3 6 -1 10 -9 10 -9 0
-16 -4 -16 -10z"/>
</g>
</svg>
