<svg version="1.1" id="Layer_1" xmlns="http://www.w3.org/2000/svg" xmlns:xlink="http://www.w3.org/1999/xlink" x="0px" y="0px"
	 width="100%" viewBox="0 0 464 464" enable-background="new 0 0 464 464" xml:space="preserve">
<path fill="#000000" opacity="1.000000" stroke="none" 
	d="
M257.531342,1.000000 
	C260.242676,3.525879 263.521210,3.033569 266.334747,3.673821 
	C314.368866,14.604534 352.672150,56.015026 360.495697,103.561165 
	C369.087555,155.776840 344.050964,207.095978 299.112213,232.710587 
	C298.542847,233.035110 298.000793,233.407608 296.953094,234.068741 
	C305.613586,237.005173 313.999023,239.468201 322.099792,242.654907 
	C389.079681,269.003601 435.268188,316.009674 461.135773,383.093292 
	C462.330383,386.191498 463.429962,389.326294 464.786926,392.722046 
	C465.000000,417.000031 465.000000,441.000061 465.000000,465.000000 
	C461.594910,465.000000 458.280426,465.000000 454.482971,465.000000 
	C453.740234,447.148285 451.839905,429.507416 447.415741,412.168152 
	C437.153656,371.948730 417.146454,337.400238 387.144531,308.709747 
	C354.919067,277.892944 316.641571,258.748291 272.767365,251.562759 
	C161.832809,233.394348 56.425922,303.117065 28.456839,412.743103 
	C24.165396,429.563599 22.205248,446.713440 22.079096,464.538269 
	C15.064446,465.000000 8.128893,465.000000 1.000000,465.000000 
	C1.000000,456.313171 1.000000,447.625244 1.000000,438.468658 
	C3.854002,432.559967 3.298081,426.414185 4.500787,420.631500 
	C20.063667,345.804779 61.356503,290.214813 128.616089,253.920639 
	C143.036652,246.139114 158.284821,240.426285 173.992981,235.875153 
	C175.532593,235.429092 177.209564,235.309372 178.732193,233.918549 
	C164.439377,225.787735 152.045273,215.628815 141.839920,202.904572 
	C120.533371,176.339142 110.662933,146.093277 114.691269,112.201576 
	C120.931671,59.698872 150.038239,24.916330 199.294937,6.663403 
	C205.177917,4.483358 211.383591,3.174067 217.719849,1.230585 
	C231.020889,1.000000 244.041794,1.000000 257.531342,1.000000 
M196.421814,30.927187 
	C194.038712,32.119923 191.632874,33.269524 189.275879,34.511795 
	C146.145355,57.243965 125.007919,109.911179 140.428177,156.196014 
	C162.662781,222.934448 241.508102,248.345444 298.604126,207.174362 
	C343.860565,174.540665 354.094269,109.493690 321.039551,64.571320 
	C292.211151,25.392593 243.076172,11.925084 196.421814,30.927187 
z"/>
</svg>