<svg width="51" height="20" viewBox="0 0 51 20" fill="none" xmlns="http://www.w3.org/2000/svg">
<path fill-rule="evenodd" clip-rule="evenodd" d="M23.5454 0.0430538C22.9041 0.284432 22.7057 0.662234 22.533 1.97063C22.4069 2.9252 22.305 3.18692 22.0877 3.1142C21.9326 3.0622 20.6586 2.99294 19.2565 2.96013C16.7945 2.90256 16.695 2.91561 16.3456 3.34234C15.9987 3.76619 15.871 3.78423 13.2184 3.78423C10.7494 3.78423 10.453 3.7495 10.453 3.45938C10.4532 2.90256 9.67409 2.53704 8.48664 2.53704C7.49131 2.53704 7.33315 2.59537 6.87866 3.12955C6.60135 3.45535 6.14861 4.10293 5.87266 4.56861C5.59671 5.0341 5.34288 5.41516 5.30892 5.41516C5.27476 5.41516 4.96796 4.96176 4.62699 4.40782C3.57558 2.69956 3.35571 2.53704 2.09627 2.53704C1.29383 2.53704 0.860692 2.63835 0.529239 2.90352L0.0710647 3.2702L0.0138173 8.89961C-0.0176203 11.9959 0.00644301 14.7257 0.0671835 14.9657C0.290352 15.8457 0.846331 16.1602 2.17952 16.1602C3.13526 16.1602 3.53036 16.0702 3.92605 15.7624C4.39626 15.3969 4.4374 15.2505 4.4374 13.9438V12.5228L4.89809 12.7302C5.23226 12.8808 5.47173 12.8779 5.77136 12.7195C6.175 12.5057 6.18393 12.5322 6.18393 13.9329C6.18393 15.2662 6.22061 15.3934 6.71759 15.7806C7.1748 16.1367 7.44706 16.1866 8.6186 16.1285C9.97332 16.0613 9.98846 16.0659 10.2681 16.6381L10.5503 17.2155L13.2003 17.2688C15.7557 17.32 15.863 17.3064 16.2083 16.8851C16.5498 16.4679 16.6693 16.4508 18.8312 16.5121C20.6703 16.564 21.2288 16.514 21.8018 16.245C22.8938 15.7327 23.0525 16.0537 22.7661 18.1948C22.6836 18.8109 22.7178 19.3269 22.8579 19.5859L23.0807 19.9976H32.365C42.9818 19.9976 42.1969 20.1385 42.1604 18.2403C42.1487 17.624 42.1924 17.1201 42.2574 17.1207C42.3226 17.1214 42.5196 17.3715 42.6948 17.6763C42.8702 17.9812 43.4379 18.477 43.9562 18.7783C44.7969 19.2668 45.0806 19.3261 46.5793 19.3261C48.1384 19.3261 48.3208 19.2839 49.1021 18.742C49.5653 18.4206 50.1626 17.7731 50.4294 17.303C50.8469 16.5671 50.9146 16.2072 50.9146 14.7211C50.9146 13.704 50.8071 12.7425 50.6532 12.3818C50.4265 11.851 50.4331 11.7108 50.7017 11.3316C51.0937 10.7783 51.1001 9.42496 50.7164 8.14785C50.3217 6.8335 49.2381 5.90022 47.7528 5.59533C46.7177 5.38293 45.8665 5.46198 44.2195 5.92402C43.7575 6.05372 43.7505 6.04432 44.074 5.72389C44.4151 5.38619 44.4998 4.64882 44.427 2.64891C44.3608 0.834538 44.147 0.74781 39.9679 0.84298C36.8074 0.915125 36.6512 0.992642 36.6512 2.48907C36.6512 3.51944 36.3989 3.41429 36.0681 2.24597C35.9317 1.76379 35.6382 1.24361 35.4162 1.08973C34.8377 0.689096 32.4287 0.708859 31.9715 1.11794C31.7821 1.28736 31.3883 2.15233 31.0961 3.04014C30.8038 3.92813 30.5081 4.58818 30.4386 4.50721C30.249 4.28541 29.902 2.9465 29.7542 1.86548C29.51 0.0800858 28.8999 -0.351633 27.5002 0.271193C26.5687 0.685642 25.6983 0.661274 24.6196 0.190606C24.2017 0.0083245 23.7884 -0.0484704 23.5454 0.0430538ZM24.7797 1.11525C25.2955 1.47252 26.8693 1.4092 27.8673 0.991107C28.2694 0.822641 28.5609 0.794627 28.6775 0.913014C28.9131 1.15228 29.3424 3.8629 29.3602 5.22329L29.374 6.2786H28.125H26.8759L26.7028 5.60704C26.4625 4.67434 26.2091 4.46711 25.8679 4.92416C25.466 5.46237 25.4763 9.22599 25.8809 9.74367C26.1691 10.1123 26.1749 10.1123 26.4631 9.74367C26.6232 9.53874 26.7542 9.17495 26.7542 8.93492C26.7542 8.38999 27.2789 8.10141 28.2702 8.10141C29.34 8.10141 29.5527 8.42702 29.4037 9.83711C29.1945 11.8159 28.2572 12.9589 26.6481 13.1974C24.8652 13.4618 23.5218 12.5362 22.9468 10.6474C22.5749 9.42592 22.5883 5.19566 22.9679 3.95864C23.1269 3.44058 23.2578 2.74177 23.259 2.40561C23.2641 0.970768 23.8513 0.472278 24.7797 1.11525ZM35.0462 1.81751C35.2633 2.09324 37.8156 11.9245 37.8156 12.4856C37.8156 12.948 37.4544 13.0909 36.2957 13.0873C35.182 13.0836 34.9895 12.9668 34.8195 12.192C34.6505 11.421 34.2948 11.1269 33.626 11.2056C33.0947 11.2679 32.9955 11.3784 32.5358 12.4186C32.2993 12.9539 32.2005 12.9982 31.1242 13.0531C30.2583 13.0971 29.9123 13.038 29.7499 12.8183C29.5824 12.5919 29.8397 11.3312 30.8784 7.29112C31.6183 4.41262 32.3138 1.94952 32.4236 1.81751C32.5412 1.67629 33.0829 1.57767 33.7403 1.57767C34.4036 1.57767 34.9338 1.67514 35.0462 1.81751ZM43.597 3.15507C43.6585 4.76778 43.7191 4.6822 42.376 4.88252C42.0057 4.93759 41.9834 5.12505 41.8908 8.96734L41.7938 12.9942H40.5324H39.271L39.174 8.96734C39.0814 5.12505 39.0591 4.93759 38.6889 4.88252C37.3776 4.687 37.4275 4.75204 37.4275 3.237C37.4275 2.46509 37.4878 1.77376 37.5618 1.70085C37.6355 1.62775 39.011 1.59187 40.6182 1.62084L43.5403 1.67361L43.597 3.15507ZM3.78982 4.64767C4.23422 5.33362 4.7704 6.10956 4.98154 6.37204L5.36539 6.84924L6.50238 5.07286L7.63937 3.29629L8.60967 3.34848L9.57997 3.40048L9.63159 8.95161C9.67156 13.265 9.62829 14.5373 9.43753 14.657C9.05814 14.8949 7.45405 14.8449 7.19304 14.5868C7.03837 14.4339 6.96017 13.6002 6.96017 12.1037C6.96017 10.8646 6.89128 9.80871 6.80686 9.75729C6.72264 9.70568 6.40904 10.0461 6.1098 10.5135C5.81075 10.9809 5.44321 11.3633 5.2932 11.3633C5.14319 11.3633 4.77448 10.9728 4.47427 10.4958C4.17386 10.0186 3.86803 9.68764 3.79467 9.76036C3.72132 9.83289 3.66116 10.8966 3.66116 12.1244C3.66116 13.6046 3.58276 14.434 3.42829 14.5868C3.18474 14.8276 1.77976 14.9011 1.25133 14.7006C0.981202 14.5981 0.944331 13.9214 0.944331 9.0723C0.944331 6.04068 1.00662 3.49891 1.0827 3.4237C1.15877 3.34848 1.61713 3.31241 2.10151 3.34368C2.95362 3.39856 3.00796 3.44077 3.78982 4.64767ZM21.6116 5.22329V6.66235L21.0295 6.71492C19.7931 6.82679 19.5461 6.94402 19.6099 7.3886C19.6575 7.71939 19.8214 7.8278 20.3485 7.87711C21.202 7.95731 21.314 8.1394 21.3176 9.45413C21.3209 10.6865 21.1065 10.9795 20.2008 10.9795C19.6338 10.9795 19.5552 11.0369 19.6089 11.4113C19.6617 11.7775 19.8183 11.8576 20.6413 11.9389L21.6116 12.0348L21.6695 13.3473C21.7048 14.1497 21.639 14.7648 21.5001 14.9302C21.3303 15.1327 20.7428 15.2008 19.169 15.2008C17.2874 15.2008 17.0437 15.1616 16.864 14.8297C16.5589 14.266 16.5937 4.21748 16.9018 3.91278C17.0697 3.74681 17.8023 3.6927 19.3761 3.7305L21.6116 3.78423V5.22329ZM15.582 4.75723C15.9558 5.12678 15.9983 6.92368 15.6443 7.38418C15.4978 7.57472 15.0557 7.72227 14.5285 7.75661C13.806 7.80381 13.6552 7.87941 13.6552 8.19466C13.6552 8.42856 13.8052 8.59837 14.0433 8.63386C15.381 8.83399 15.3264 8.76108 15.2645 10.2658L15.2077 11.6511L14.4967 11.7096C13.2293 11.814 13.3175 12.7431 14.5999 12.7949C15.6055 12.8353 15.8869 13.1698 15.8869 14.3241C15.8869 15.9207 15.7679 15.9907 13.1677 15.927L10.9384 15.8723L10.8868 10.4271C10.8503 6.57006 10.8996 4.90535 11.0562 4.71885C11.3934 4.31706 15.1691 4.34911 15.582 4.75723ZM48.5655 6.72548C49.3668 7.18271 49.8632 7.92067 50.0561 8.94182C50.3085 10.2775 50.1973 10.4039 48.7698 10.4039C47.6206 10.4039 47.523 10.3694 47.2851 9.87856C46.9703 9.22925 46.4485 9.10357 46.1739 9.61089C45.8428 10.2226 46.1246 10.5564 47.156 10.7752C48.4943 11.059 49.1636 11.4406 49.6097 12.1741C50.3582 13.4046 50.3128 15.6296 49.517 16.7104C48.9777 17.4432 47.5985 18.0789 46.5482 18.0789C45.3907 18.0789 44.047 17.4043 43.5708 16.5842C43.356 16.2139 43.1937 15.5396 43.1784 14.9533L43.1522 13.9536H44.4111C45.5991 13.9536 45.6845 13.9837 45.9309 14.4926C46.2948 15.2432 47.0334 15.1524 47.0334 14.3569C47.0334 13.8371 46.9534 13.7794 45.8075 13.4691C45.0814 13.2726 44.3581 12.9255 44.033 12.6178C42.5999 11.2602 42.8243 8.09182 44.4375 6.90296C45.4673 6.1441 47.4007 6.06101 48.5655 6.72548ZM33.3625 7.47782C33.06 8.55481 33.0984 8.67704 33.7403 8.67704C34.0605 8.67704 34.3225 8.62888 34.3225 8.57016C34.3225 8.1701 33.8579 6.75829 33.7264 6.75829C33.6373 6.75829 33.4735 7.08217 33.3625 7.47782ZM41.1782 14.4444C41.416 14.78 41.4195 14.9659 41.2008 15.6845C41.0207 16.2759 40.9984 16.7185 41.126 17.1591C41.3981 18.0969 41.3492 18.79 41.0016 18.9218C40.8328 18.9859 36.9138 19.0383 32.2929 19.0383C22.7428 19.0383 23.2553 19.1267 23.6388 17.5464C23.7985 16.8881 23.8057 16.3762 23.6638 15.7676C23.4067 14.6643 23.4042 14.7031 23.7601 14.351C24.0281 14.0862 25.089 14.0495 32.4819 14.0495C40.7575 14.0495 40.9033 14.0561 41.1782 14.4444ZM25.5899 16.5439C25.5899 17.61 25.65 17.887 25.8809 17.887C26.0775 17.887 26.172 17.6925 26.172 17.288C26.172 16.777 26.2149 16.7241 26.4631 16.9277C26.6642 17.0927 26.7542 17.1 26.7542 16.9511C26.7542 16.8327 26.8394 16.7358 26.9434 16.7358C27.0501 16.7358 27.0818 16.9867 27.0162 17.3114C26.9161 17.8064 26.9574 17.887 27.3121 17.887C27.69 17.887 27.7245 17.7834 27.7245 16.6512C27.7245 15.2549 27.4641 14.9149 26.923 15.6049C26.617 15.9951 26.5341 16.021 26.3706 15.7764C26.2646 15.6181 26.1767 15.4237 26.1749 15.3447C26.1734 15.2656 26.041 15.2008 25.8809 15.2008C25.65 15.2008 25.5899 15.4778 25.5899 16.5439ZM28.048 15.3288C27.9768 15.399 27.9186 16.0034 27.9186 16.6719V17.887H28.5007C29.0965 17.887 29.3212 17.4534 28.8403 17.2314C28.6463 17.142 28.6463 17.0971 28.8403 17.0077C28.9739 16.9461 29.0829 16.7805 29.0829 16.6398C29.0829 16.4992 28.9739 16.3336 28.8403 16.272C28.6463 16.1826 28.6463 16.1377 28.8403 16.0483C28.9739 15.9867 29.0829 15.7708 29.0829 15.5686C29.0829 15.3111 28.9471 15.2008 28.6302 15.2008C28.381 15.2008 28.119 15.2583 28.048 15.3288ZM29.471 16.5439V17.887H30.0532C30.4413 17.887 30.6354 17.7911 30.6354 17.5992C30.6354 17.4409 30.5044 17.3114 30.3443 17.3114C29.9921 17.3114 29.957 16.9942 30.2958 16.8724C30.4786 16.8066 30.4856 16.6966 30.3237 16.4255C30.157 16.1463 30.1745 16.0187 30.4019 15.8545C30.793 15.5717 30.5337 15.2008 29.9447 15.2008C29.4875 15.2008 29.471 15.2478 29.471 16.5439ZM30.8295 15.5845C30.8295 15.7956 30.9168 15.9683 31.0235 15.9683C31.1302 15.9683 31.2176 16.4 31.2176 16.9277C31.2176 17.759 31.2694 17.887 31.6057 17.887C31.9399 17.887 31.9938 17.759 31.9938 16.966C31.9938 16.4595 32.091 15.9489 32.2098 15.8315C32.5527 15.4924 32.223 15.2008 31.4972 15.2008C30.9589 15.2008 30.8295 15.275 30.8295 15.5845ZM32.8089 15.431C32.4646 15.7714 32.515 17.4156 32.8809 17.7775C33.2418 18.1342 33.2676 18.1372 33.7531 17.8803C34.0456 17.7255 34.1285 17.4747 34.1285 16.7448C34.1285 16.2294 34.0755 15.6713 34.0107 15.5043C33.8719 15.1467 33.1415 15.1022 32.8089 15.431ZM34.5166 16.5439C34.5166 17.61 34.5767 17.887 34.8077 17.887C34.9806 17.887 35.0988 17.7109 35.0988 17.4528C35.0988 17.1867 35.2676 16.9453 35.5354 16.8292C36.0337 16.6132 36.2109 15.8888 35.8661 15.478C35.7382 15.3255 35.3821 15.2008 35.0751 15.2008H34.5166V16.5439ZM36.4411 15.28C36.3966 15.3236 36.3894 15.928 36.4251 16.6231C36.4731 17.5545 36.5625 17.887 36.7648 17.887C36.9753 17.887 37.0393 17.5739 37.0393 16.5439C37.0393 15.5525 36.9716 15.2008 36.7807 15.2008C36.6382 15.2008 36.4855 15.2365 36.4411 15.28ZM37.8292 15.9188C37.3822 17.5593 37.3597 17.887 37.6943 17.887C37.8678 17.887 38.0096 17.8007 38.0096 17.6952C38.0096 17.5896 38.1406 17.5033 38.3007 17.5033C38.4608 17.5033 38.5918 17.5896 38.5918 17.6952C38.5918 17.8007 38.7665 17.887 38.9799 17.887C39.1934 17.887 39.365 17.8655 39.3613 17.8391C39.3576 17.8126 39.1959 17.2299 39.0021 16.5439C38.5763 15.0375 38.1334 14.8013 37.8292 15.9188ZM33.5463 16.6512C33.5463 17.0576 33.4677 17.2861 33.3522 17.2155C33.2455 17.1502 33.1582 16.843 33.1582 16.5326C33.1582 16.2221 33.2455 15.9683 33.3522 15.9683C33.459 15.9683 33.5463 16.2757 33.5463 16.6512ZM35.4869 16.1602C35.4869 16.2657 35.3995 16.352 35.2928 16.352C35.1861 16.352 35.0988 16.2657 35.0988 16.1602C35.0988 16.0546 35.1861 15.9683 35.2928 15.9683C35.3995 15.9683 35.4869 16.0546 35.4869 16.1602ZM38.4948 16.7358C38.5608 16.8413 38.5222 16.9277 38.4092 16.9277C38.2963 16.9277 38.2037 16.8413 38.2037 16.7358C38.2037 16.6302 38.2421 16.5439 38.2893 16.5439C38.3364 16.5439 38.4288 16.6302 38.4948 16.7358Z" fill="white"/>
</svg>
