<svg width="129" height="46" viewBox="0 0 129 46" fill="none" xmlns="http://www.w3.org/2000/svg">
<path d="M128.905 36.6904C128.763 42.6073 124.226 44.9469 120.833 45.6148C119.811 45.8159 118.994 44.9532 118.721 43.9482C117.86 40.7808 114.803 40.6645 113.704 40.6645H23.9471C4.99878 40.6645 4.99942 34.9265 5.00001 29.5475L5.00001 29.4574V16.3428C5.00001 3.86395 11.8509 2.91016 15.8116 2.91016H111.885C127.834 2.91016 128.905 8.31499 128.905 15.23C128.905 16.8991 129.119 27.7883 128.905 36.6904Z" fill="#14012C"/>
<path d="M126.914 34.1211C126.768 40.5163 121.514 42.5287 118.448 42.8046C118.152 42.8313 117.909 42.5882 117.89 42.291C117.627 38.0502 114.277 37.9104 113.161 37.9104H19.1426C1.9989 37.9104 1.99947 32.4393 2.00001 27.3105L2.00001 27.2246V14.7199C2.00001 2.82154 8.19847 1.91211 11.782 1.91211H111.515C125.945 1.91211 126.914 7.06555 126.914 13.6589C126.914 15.2504 127.108 25.6331 126.914 34.1211Z" fill="#885FFA" stroke="#14012C" stroke-width="2.11847"/>
<path d="M14.9776 25.8965V16.7285H19.1856V15.1765H9.04161V16.7285H13.2656V25.8965H14.9776ZM21.9245 25.8965V22.0405C21.9245 20.3605 22.5965 19.3365 24.4845 19.3365C26.1325 19.3365 26.8525 19.9765 26.8525 21.5765V25.8965H28.5645V21.1605C28.5645 19.2245 27.4925 17.7845 25.3005 17.7845C23.2685 17.7845 22.2925 19.0325 22.0205 20.3765H21.9245V15.1765H20.1965V25.8965H21.9245ZM31.8464 17.0165V15.1765H30.1184V17.0165H31.8464ZM31.8464 25.8965V17.9445H30.1184V25.8965H31.8464ZM37.2065 26.0565C39.4465 26.0565 40.9185 25.1765 40.9185 23.6885C40.9185 22.3765 40.0545 21.7365 38.1665 21.4965L36.3265 21.2405C35.1265 21.0805 34.8065 20.8565 34.8065 20.2325C34.8065 19.4805 35.3185 19.1605 36.7745 19.1605C38.5345 19.1605 39.0145 19.6565 39.0145 20.6005V20.6965H40.7265V20.6485C40.7265 18.7605 39.2545 17.7845 36.8225 17.7845C34.3745 17.7845 33.1105 18.7765 33.1105 20.1685C33.1105 21.4965 34.0225 22.1365 35.5265 22.3285L37.7025 22.6165C38.8385 22.7765 39.2225 22.9845 39.2225 23.6405C39.2225 24.3445 38.7585 24.6645 37.2065 24.6645C35.5425 24.6645 34.9185 24.3285 34.9185 23.2885V23.1605H33.1905V23.2085C33.1905 25.0485 34.6465 26.0565 37.2065 26.0565ZM46.6276 25.8965V15.1765H44.8996V25.8965H46.6276ZM52.2917 26.0565C54.9477 26.0565 56.7237 24.3765 56.7237 21.9285C56.7237 19.4485 54.9477 17.7845 52.2917 17.7845C49.6517 17.7845 47.8757 19.4485 47.8757 21.9285C47.8757 24.3765 49.6517 26.0565 52.2917 26.0565ZM52.2917 24.5205C50.3717 24.5205 49.5717 23.6085 49.5717 21.9285C49.5717 20.2325 50.3717 19.3045 52.2917 19.3045C54.2277 19.3045 55.0277 20.2325 55.0277 21.9285C55.0277 23.6085 54.2277 24.5205 52.2917 24.5205ZM62.0417 26.0565C64.6977 26.0565 66.4737 24.3765 66.4737 21.9285C66.4737 19.4485 64.6977 17.7845 62.0417 17.7845C59.4017 17.7845 57.6257 19.4485 57.6257 21.9285C57.6257 24.3765 59.4017 26.0565 62.0417 26.0565ZM62.0417 24.5205C60.1217 24.5205 59.3217 23.6085 59.3217 21.9285C59.3217 20.2325 60.1217 19.3045 62.0417 19.3045C63.9777 19.3045 64.7777 20.2325 64.7777 21.9285C64.7777 23.6085 63.9777 24.5205 62.0417 24.5205ZM69.4557 25.8965V22.6485H71.7277L74.0797 25.8965H76.1117L73.1357 21.7685L76.1277 17.9445H74.1117L71.7277 21.0965H69.4557V15.1765H67.7277V25.8965H69.4557ZM80.7377 26.0565C82.9777 26.0565 84.4497 25.1765 84.4497 23.6885C84.4497 22.3765 83.5857 21.7365 81.6977 21.4965L79.8577 21.2405C78.6577 21.0805 78.3377 20.8565 78.3377 20.2325C78.3377 19.4805 78.8497 19.1605 80.3057 19.1605C82.0657 19.1605 82.5457 19.6565 82.5457 20.6005V20.6965H84.2577V20.6485C84.2577 18.7605 82.7857 17.7845 80.3537 17.7845C77.9057 17.7845 76.6417 18.7765 76.6417 20.1685C76.6417 21.4965 77.5537 22.1365 79.0577 22.3285L81.2337 22.6165C82.3697 22.7765 82.7537 22.9845 82.7537 23.6405C82.7537 24.3445 82.2897 24.6645 80.7377 24.6645C79.0737 24.6645 78.4497 24.3285 78.4497 23.2885V23.1605H76.7217V23.2085C76.7217 25.0485 78.1777 26.0565 80.7377 26.0565ZM92.4469 26.0565C94.8309 26.0565 96.5749 24.7125 96.5749 22.7285V22.5525H94.8629V22.6645C94.8629 23.8965 93.9669 24.5045 92.4149 24.5045C90.6229 24.5045 89.8229 23.6405 89.8229 21.9285C89.8229 20.1845 90.6229 19.3365 92.4149 19.3365C93.9669 19.3365 94.8629 19.9445 94.8629 21.1765V21.2725H96.5749V21.1125C96.5749 19.1285 94.8309 17.7845 92.4469 17.7845C89.8229 17.7845 88.1109 19.4485 88.1109 21.9285C88.1109 24.3765 89.8229 26.0565 92.4469 26.0565ZM101.917 26.0565C104.573 26.0565 106.349 24.3765 106.349 21.9285C106.349 19.4485 104.573 17.7845 101.917 17.7845C99.2767 17.7845 97.5007 19.4485 97.5007 21.9285C97.5007 24.3765 99.2767 26.0565 101.917 26.0565ZM101.917 24.5205C99.9967 24.5205 99.1967 23.6085 99.1967 21.9285C99.1967 20.2325 99.9967 19.3045 101.917 19.3045C103.853 19.3045 104.653 20.2325 104.653 21.9285C104.653 23.6085 103.853 24.5205 101.917 24.5205ZM111.667 26.0565C114.323 26.0565 116.099 24.3765 116.099 21.9285C116.099 19.4485 114.323 17.7845 111.667 17.7845C109.027 17.7845 107.251 19.4485 107.251 21.9285C107.251 24.3765 109.027 26.0565 111.667 26.0565ZM111.667 24.5205C109.747 24.5205 108.947 23.6085 108.947 21.9285C108.947 20.2325 109.747 19.3045 111.667 19.3045C113.603 19.3045 114.403 20.2325 114.403 21.9285C114.403 23.6085 113.603 24.5205 111.667 24.5205ZM119.081 25.8965V15.1765H117.353V25.8965H119.081Z" fill="#FFD4B6"/>
</svg>
