<svg width="80" height="80" viewBox="0 0 80 80" fill="none" xmlns="http://www.w3.org/2000/svg">
<path d="M40 0C17.9368 0 0 17.9368 0 40C0 62.0632 17.9368 80 40 80C62.0632 80 80 62.0632 80 40C80 17.9368 62.0632 0 40 0ZM40 73.5158C21.4737 73.5158 6.48421 58.5263 6.48421 40C6.48421 21.4737 21.4737 6.48421 40 6.48421C58.5263 6.48421 73.5158 21.4737 73.5158 40C73.5158 58.5263 58.5263 73.5158 40 73.5158Z" fill="#D9D9D9"/>
<path d="M52.5474 19.8737L32.1685 29.4737C30.9895 30.0635 29.9791 30.9892 29.4734 32.1687L19.8734 52.5477C18.8631 54.737 19.2837 57.2633 20.9683 58.9475C22.0633 60.0425 23.4948 60.6316 24.9262 60.6316C25.7686 60.6316 26.6103 60.463 27.368 60.0418L47.747 50.4418C48.9259 49.8521 49.9363 48.9264 50.442 47.7468L60.042 27.3679C61.0524 25.1785 60.6318 22.6522 58.9471 20.968C57.263 19.284 54.7366 18.8634 52.5473 19.8737L52.5474 19.8737ZM44.8841 44.7158L35.2841 35.1158L53.3894 26.6107L44.8841 44.7158Z" fill="#D9D9D9"/>
</svg>
