<svg width="80" height="80" viewBox="0 0 80 80" fill="none" xmlns="http://www.w3.org/2000/svg">
<path d="M77.5903 14.6223H56.7473C57.5828 13.7004 58.2385 12.6709 58.6654 11.5424C60.0147 7.98099 58.8491 4.12884 55.5476 1.2394C54.622 0.428572 53.5024 0 52.3083 0C47.7802 0 42.9174 6.81973 40.0009 11.74C37.0831 6.81987 32.2217 0 27.6934 0C26.5004 0 25.3797 0.428572 24.4535 1.2394C21.1536 4.12998 19.9881 7.98099 21.3368 11.5419C21.7643 12.6708 22.4205 13.7003 23.256 14.6227L2.41008 14.6222C1.07926 14.6222 0 15.6964 0 17.0223V29.4782C0 30.8035 1.07866 31.8783 2.41008 31.8783H7.83414V77.5998C7.83414 78.9252 8.91281 80 10.2442 80H69.7552C71.086 80 72.1653 78.9258 72.1653 77.5998V31.8798H77.5899C78.9207 31.8798 80 30.8055 80 29.4796V17.0237C80 15.6978 78.9212 14.6223 77.5903 14.6223ZM43.9761 19.4226V27.0789H36.0248V19.4226H43.9761ZM52.2984 4.79541C52.2984 4.79541 52.3208 4.80657 52.3651 4.84507C54.1509 6.40808 54.7863 8.18608 54.1553 9.85008C53.2554 12.2251 49.7354 14.6212 43.8988 14.6235C47.0994 9.18208 50.7658 4.79984 52.2984 4.79541ZM27.6353 4.84452C27.6661 4.81773 27.6869 4.80378 27.6925 4.80099C29.2334 4.80155 32.9004 9.18328 36.1004 14.6236C30.2634 14.6213 26.7443 12.2246 25.8444 9.85014C25.0381 7.71614 26.3735 5.95052 27.6353 4.84452ZM4.81986 19.4231H31.2043V27.0794L10.2436 27.0789H4.81958L4.81986 19.4231ZM12.6534 31.8801H31.2042L31.2047 75.2002H12.654L12.6534 31.8801ZM36.024 75.2002V31.8801H43.9754V75.2002H36.024ZM67.3446 75.2002H48.7938V31.8801H67.3446V75.2002ZM75.1793 27.0801H48.7948V19.4238H75.1793V27.0801Z" fill="#17E3A6"/>
</svg>
