<svg width="76" height="76" viewBox="0 0 76 76" fill="none" xmlns="http://www.w3.org/2000/svg">
<g clip-path="url(#clip0_44_225)">
<path d="M38 75.8897C58.9261 75.8897 75.89 58.9258 75.89 37.9998C75.89 17.0738 58.9261 0.109863 38 0.109863C17.074 0.109863 0.110107 17.0738 0.110107 37.9998C0.110107 58.9258 17.074 75.8897 38 75.8897Z" fill="#002ED3"/>
<path d="M38 75.8897C58.9261 75.8897 75.89 58.9258 75.89 37.9998C75.89 17.0738 58.9261 0.109863 38 0.109863C17.074 0.109863 0.110107 17.0738 0.110107 37.9998C0.110107 58.9258 17.074 75.8897 38 75.8897Z" fill="#002ED3"/>
<path d="M49.3092 2.86523C43.076 2.86523 37.0981 5.34137 32.6906 9.74891C28.283 14.1565 25.8069 20.1344 25.8069 26.3676C28.892 26.3673 31.947 26.9748 34.7974 28.1553C37.6477 29.3358 40.2377 31.0661 42.4193 33.2476C44.6009 35.429 46.3314 38.0188 47.5121 40.8691C48.6928 43.7194 49.3005 46.7743 49.3005 49.8594C55.5331 49.859 61.5103 47.3829 65.9174 42.9758C70.3245 38.5686 72.8006 32.5914 72.8011 26.3588C69.7159 26.3588 66.661 25.7511 63.8107 24.5705C60.9605 23.3898 58.3707 21.6592 56.1892 19.4776C54.0078 17.296 52.2774 14.7061 51.0969 11.8557C49.9165 9.00535 49.309 5.95038 49.3092 2.86523Z" fill="#EB3424"/>
<g style="mix-blend-mode:color-dodge">
<path d="M25.8122 26.364C19.5793 26.364 13.6016 28.8399 9.19411 33.2471C4.78661 37.6542 2.31028 43.6317 2.30981 49.8646C5.3951 49.8644 8.45022 50.4719 11.3007 51.6525C14.1512 52.8331 16.7412 54.5636 18.9228 56.7452C21.1044 58.9268 22.835 61.5169 24.0155 64.3673C25.1961 67.2178 25.8037 70.2729 25.8034 73.3582C32.0363 73.3578 38.0138 70.8814 42.421 66.4739C46.8281 62.0664 49.304 56.0888 49.304 49.8559C43.0736 49.8559 37.0983 47.3808 32.6928 42.9753C28.2872 38.5697 25.8122 32.5944 25.8122 26.364Z" fill="#8C71DE"/>
</g>
<g style="mix-blend-mode:color-dodge">
<path d="M40.4704 18.6943H31.9392L24.2012 42.9462H17.6914L25.3229 18.6943H19.1904L20.9655 13.0022H42.3119L40.4704 18.6943Z" stroke="#388A99" stroke-width="3.51724" stroke-miterlimit="10"/>
<path d="M51.9456 63.0136H35.437L38.2621 54.2046H44.0451L42.8571 57.6551H48.0635L49.8788 53.0445L41.082 45.6699L44.7806 34.7136H61.7732L58.8031 43.1313H53.1546L54.2029 40.1157H48.7571L47.4712 44.0153L56.0094 51.2851L51.9456 63.0136Z" stroke="#388A99" stroke-width="3.51724" stroke-miterlimit="10"/>
</g>
<path d="M42.1686 26.1333H34.5931L27.7234 47.6649H21.9421L28.7175 26.1333H23.2717L24.8441 21.0667H43.8057L42.1686 26.1333Z" fill="#DAFF00"/>
<path d="M47.1723 56.4181H32.5139L35.028 48.5945H40.1628L39.1023 51.6537H43.7252L45.3378 47.5602L37.5264 41.0102L40.811 31.2822H55.9079L53.268 38.7564H48.2538L49.1902 36.0798H44.3385L43.1976 39.5409L50.7801 45.9965L47.1723 56.4181Z" fill="#DAFF00"/>
</g>
<defs>
<clipPath id="clip0_44_225">
<rect width="76" height="76" fill="white"/>
</clipPath>
</defs>
</svg>
