<svg width="129" height="76" viewBox="0 0 129 76" fill="none" xmlns="http://www.w3.org/2000/svg">
<g clip-path="url(#clip0_44_195)">
<path d="M127.619 29.3484L121.134 26.9897L123.309 25.0382L110.252 20.2913L107.67 4.796L104.513 7.39747L103.362 0.48584L80.4324 19.3688L78.5159 7.8657L75.3518 10.4357L74.2057 3.55554L52.2181 21.4182L49.3598 10.9337L46.8404 13.1927L45.0496 6.6235L0.548584 46.5209L7.03567 48.8795L4.85875 50.831L18.1823 55.6758L22.0313 71.0732L24.6502 68.6185L26.3414 75.3834L48.1683 54.9211L51.1873 68.0053L53.946 65.5908L55.4975 72.3137L76.9155 53.574L78.8094 64.9356L81.9332 62.1332L83.1178 69.2458L127.619 29.3484Z" fill="black"/>
<path d="M127.692 29.4127L83.1912 69.3101L80.1232 50.8954L55.5708 72.3798L50.9672 52.4311L26.4148 75.4477L21.8111 57.0348L4.93213 50.8954L49.4332 10.9998L54.0369 27.8787L78.5875 7.93005L81.6572 26.3448L107.744 4.86035L110.813 23.2751L127.692 29.4127Z" fill="#04F7B0"/>
<g style="mix-blend-mode:hard-light">
<path d="M123.382 25.1044L78.8826 65L75.8129 46.587L51.2605 68.0697L46.6569 48.121L22.1045 71.1394L17.5008 52.7247L0.621826 46.587L45.1229 6.68966L49.7266 23.5686L74.2772 3.61996L77.3469 22.0347L103.433 0.552002L106.503 18.965L123.382 25.1044Z" fill="#8C71DE"/>
</g>
<g style="mix-blend-mode:hard-light">
<path d="M29.6768 38.9471L35.4003 36.122L36.3176 29.8079L40.7728 34.3766L47.0624 33.2986L44.0923 38.9471L47.0624 44.5955L40.7728 43.5176L36.3176 48.088L35.4003 41.7722L29.6768 38.9471Z" stroke="#F921E4" stroke-width="2.11752" stroke-miterlimit="10"/>
</g>
<g style="mix-blend-mode:hard-light">
<path d="M82.7405 38.9471L88.4641 36.122L89.3813 29.8079L93.8365 34.3766L100.126 33.2986L97.156 38.9471L100.126 44.5955L93.8365 43.5176L89.3813 48.088L88.4641 41.7722L82.7405 38.9471Z" stroke="#F921E4" stroke-width="2.11752" stroke-miterlimit="10"/>
</g>
<g style="mix-blend-mode:hard-light">
<path d="M56.2087 38.9471L61.9323 36.122L62.8496 29.8079L67.3047 34.3766L73.5944 33.2986L70.6243 38.9471L73.5944 44.5955L67.3047 43.5176L62.8496 48.088L61.9323 41.7722L56.2087 38.9471Z" stroke="#F921E4" stroke-width="2.11752" stroke-miterlimit="10"/>
</g>
<g style="mix-blend-mode:color-dodge">
<path d="M98.5118 6.24048L102.934 26.8671L122.205 34.7239L104.22 45.5281L102.668 66.6282L87.1292 52.6774L66.9027 57.8611L75.2837 38.4365L64.3345 20.5407L85.0519 22.4853L98.5118 6.24048Z" stroke="#8C71DE" stroke-width="3.02428" stroke-miterlimit="10"/>
<path d="M75.2872 38.9155L81.1523 36.3979L72.1616 21.5369" stroke="#8C71DE" stroke-width="3.02428" stroke-miterlimit="10"/>
<path d="M93.6965 12.9707L97.8774 30.0139L102.934 26.8673" stroke="#8C71DE" stroke-width="3.02428" stroke-miterlimit="10"/>
<path d="M117.222 38.3163L97.6941 30.7617" stroke="#8C71DE" stroke-width="3.02428" stroke-miterlimit="10"/>
<path d="M73.4177 56.06C73.554 55.4992 82.0346 36.5603 82.0346 36.5603" stroke="#8C71DE" stroke-width="3.02428" stroke-miterlimit="10"/>
</g>
<path style="mix-blend-mode:color-dodge" opacity="0.64" d="M81.9519 68.2168L131.595 22.8245" stroke="url(#paint0_linear_44_195)" stroke-width="3.60432" stroke-miterlimit="10"/>
<g style="mix-blend-mode:color-dodge">
<path d="M42.6561 23.4585H30.0017V95.3667" stroke="#FF87BB" stroke-width="3.60432" stroke-miterlimit="10"/>
<path d="M42.6562 44.3772C47.8976 44.3772 52.1327 39.6966 52.1327 33.9206C52.1327 28.1446 47.8906 23.4658 42.6562 23.4658" stroke="#FF87BB" stroke-width="3.60432" stroke-miterlimit="10"/>
<path d="M30.0017 44.3699H42.6561" stroke="#FF87BB" stroke-width="3.60432" stroke-miterlimit="10"/>
<path d="M40.4932 44.3772C43.1663 44.3772 44.833 45.3032 46.5959 46.9577C48.3587 48.6122 65.0121 64.0966 65.0121 64.0966" stroke="#FF87BB" stroke-width="3.60432" stroke-miterlimit="10"/>
<path d="M29.6453 43.2888C32.6154 45.6597 57.6868 70.5061 57.6868 70.5061" stroke="#FF87BB" stroke-width="3.60432" stroke-miterlimit="10"/>
<path d="M77.5583 53.7766C80.5302 56.1475 88.8192 64.5542 88.8192 64.5542" stroke="#FF87BB" stroke-width="3.60432" stroke-miterlimit="10"/>
</g>
</g>
<defs>
<linearGradient id="paint0_linear_44_195" x1="60.538" y1="54.8336" x2="132.813" y2="54.8336" gradientUnits="userSpaceOnUse">
<stop offset="0.02" stop-color="#33FAFF"/>
<stop offset="1" stop-color="#78F6AF"/>
</linearGradient>
<clipPath id="clip0_44_195">
<rect width="128.314" height="76" fill="white"/>
</clipPath>
</defs>
</svg>
