<svg width="76" height="76" viewBox="0 0 76 76" fill="none" xmlns="http://www.w3.org/2000/svg">
<g clip-path="url(#clip0_44_243)">
<path d="M0.431885 0.5354H75.3437V75.4472H0.431885V0.5354Z" fill="url(#paint0_linear_44_243)"/>
<path d="M75.3437 37.9999C75.3437 58.6927 58.5719 75.4645 37.8792 75.4645C17.1864 75.4645 0.431885 58.6927 0.431885 37.9999C0.431885 17.3072 17.2037 0.5354 37.8792 0.5354C58.5546 0.5354 75.3437 17.3072 75.3437 37.9999Z" fill="#5700FF"/>
<path d="M75.3437 37.9999C75.3437 58.6927 58.5719 75.4645 37.8792 75.4645C17.1864 75.4645 0.431885 58.6927 0.431885 37.9999C0.431885 17.3072 17.2037 0.5354 37.8792 0.5354C58.5546 0.5354 75.3437 17.3072 75.3437 37.9999Z" fill="#F200F2"/>
<path d="M40.1937 -245.86H2.36645L-7.16809 -192.315C-7.59991 -189.862 -5.71718 -187.616 -3.22991 -187.616H-1.32991C1.15736 -187.616 3.04009 -185.371 2.60827 -182.918L-1.93446 -157.355C-2.36627 -154.885 -0.466275 -152.622 2.03827 -152.622H6.87463C9.37918 -152.622 11.2792 -150.359 10.8474 -147.889L6.97827 -126.316C6.80554 -125.383 6.011 -124.709 5.061 -124.709C4.111 -124.709 3.29918 -124.036 3.14373 -123.103L-2.159 -93.3419C-2.50446 -91.4419 -1.03627 -89.7147 0.880999 -89.7147H10.2083C12.1255 -89.7147 13.5937 -87.9701 13.2483 -86.0874L11.9183 -78.5737C11.4174 -75.7756 13.5592 -73.2192 16.4092 -73.2192C19.2592 -73.2192 21.3837 -70.6628 20.9001 -67.8647V-67.8474C20.5201 -65.7401 22.1437 -63.8056 24.2855 -63.8056H27.9128C30.0546 -63.8056 31.661 -61.871 31.2983 -59.7637L29.1565 -47.7246C28.9492 -46.5846 29.8301 -45.531 30.9874 -45.531C32.1446 -45.531 33.0255 -44.4774 32.8183 -43.3374L32.2137 -39.9174C31.8683 -37.931 33.3883 -36.1174 35.3919 -36.1174C37.4128 -36.1174 38.9328 -34.3037 38.5701 -32.3174L37.7065 -27.4637C37.4819 -26.2028 36.3764 -25.2701 35.0983 -25.2701C33.8028 -25.2701 32.7146 -24.3546 32.4901 -23.0765L24.7174 20.589C24.4755 21.9708 23.2665 22.9899 21.8674 22.9899H19.7946C18.3955 22.9899 17.1865 23.9917 16.9446 25.3735L13.0237 47.2235C12.7128 49.0026 14.0774 50.6263 15.8737 50.6263C17.6874 50.6263 19.0519 52.2499 18.7237 54.029L12.5919 88.5744C12.3501 89.9217 13.3865 91.1653 14.7683 91.1653C16.1501 91.1653 17.1865 92.409 16.9446 93.7563L12.6783 117.765H50.5055L54.7719 93.7563C55.0137 92.409 53.9774 91.1653 52.5955 91.1653C51.2137 91.1653 50.1774 89.9217 50.4192 88.5744L56.5683 54.0463C56.8792 52.2672 55.5146 50.6436 53.7183 50.6436C51.9046 50.6436 50.5401 49.0199 50.8683 47.2408L54.7546 25.3563C54.9965 23.9745 56.2055 22.9726 57.6046 22.9726H59.6774C61.0765 22.9726 62.2855 21.9708 62.5274 20.5717L70.3001 -23.0937C70.5246 -24.3546 71.6301 -25.2874 72.9083 -25.2874C74.1865 -25.2874 75.2919 -26.2028 75.5165 -27.481L76.3801 -32.3346C76.7255 -34.321 75.2055 -36.1346 73.2019 -36.1346C71.1983 -36.1346 69.661 -37.9483 70.0237 -39.9346L70.6283 -43.3546C70.8355 -44.4946 69.9546 -45.5483 68.7974 -45.5483C67.6401 -45.5483 66.7592 -46.6019 66.9665 -47.7419L69.1083 -59.781C69.4883 -61.8883 67.8646 -63.8228 65.7228 -63.8228H62.0955C59.9537 -63.8228 58.3474 -65.7574 58.7101 -67.8647V-67.8819C59.211 -70.6801 57.0692 -73.2365 54.2192 -73.2365C51.3865 -73.2365 49.2446 -75.7928 49.7283 -78.591L51.3865 -87.8837C51.7319 -89.7837 50.2637 -91.511 48.3465 -91.511H39.0192C37.1019 -91.511 35.6337 -93.2556 35.9792 -95.1383L40.971 -123.12C41.1437 -124.053 41.9383 -124.726 42.8883 -124.726C43.8383 -124.726 44.6501 -125.4 44.8055 -126.333L49.901 -154.988C50.3328 -157.458 48.4328 -159.721 45.9283 -159.721H41.0919C38.5874 -159.721 36.6874 -161.984 37.1192 -164.454L40.401 -182.936C40.8328 -185.388 38.9501 -187.634 36.4628 -187.634H34.5628C32.0755 -187.634 30.1928 -189.879 30.6246 -192.332L40.1937 -245.86Z" fill="#1F08FC"/>
<path d="M22.6273 -1.60645L17.6355 28.7936C17.3937 30.1754 16.1846 31.1945 14.7855 31.1945H12.7128C11.3137 31.1945 10.1046 32.1963 9.86275 33.5954L5.95911 55.4454C5.64821 57.2245 7.01275 58.8481 8.80911 58.8481C10.6228 58.8481 11.9873 60.4717 11.6591 62.2508L9.31002 72.6663" stroke="#FFE3FE" stroke-miterlimit="10"/>
<path d="M59.6946 96.5199L66.4309 61.9917C66.7419 60.2126 65.3773 58.589 63.5809 58.589C61.7673 58.589 60.4028 56.9654 60.7309 55.1863L64.6173 33.319C64.8591 31.9372 66.0682 30.9181 67.4673 30.9181H69.54C70.9391 30.9181 72.1482 29.9163 72.39 28.5172L75.6373 8.03174" stroke="#DAFF00" stroke-width="3" stroke-miterlimit="10"/>
<path d="M57.5183 53.3382L57.6737 27.4809H45.6346C50.3846 26.2373 53.9083 21.9018 53.9083 16.7546C53.9083 10.6227 48.9337 5.64819 42.8019 5.64819C36.6701 5.64819 31.6956 10.6227 31.6956 16.7546C31.6956 22.1091 35.4783 26.5655 40.5046 27.6191L46.3946 54.2536H37.7756V56.9482H57.1383L56.9483 55.2036L57.5183 53.3382Z" fill="#AB97FF"/>
<path d="M47.8227 59.69L47.9782 33.8327H35.9391C40.6891 32.5891 44.2127 28.2536 44.2127 23.1064C44.2127 16.9745 39.2382 12 33.1064 12C26.9745 12 22 16.9745 22 23.1064C22 28.4609 25.7827 32.9173 30.8091 33.9709L36.6991 60.6055H28.08V63.3H47.4427L47.2527 61.5555L47.8227 59.69Z" fill="#DAFF00"/>
</g>
<defs>
<linearGradient id="paint0_linear_44_243" x1="0.446398" y1="37.9734" x2="75.3664" y2="37.9734" gradientUnits="userSpaceOnUse">
<stop stop-color="#FF0000"/>
<stop offset="0.008" stop-color="#FD020E"/>
<stop offset="0.033" stop-color="#F60837"/>
<stop offset="0.06" stop-color="#F00D5D"/>
<stop offset="0.091" stop-color="#EB117D"/>
<stop offset="0.124" stop-color="#E71599"/>
<stop offset="0.162" stop-color="#E318AF"/>
<stop offset="0.206" stop-color="#E01ABF"/>
<stop offset="0.26" stop-color="#DE1CCB"/>
<stop offset="0.337" stop-color="#DD1DD2"/>
<stop offset="0.548" stop-color="#DD1DD4"/>
<stop offset="1" stop-color="#DF28D6"/>
</linearGradient>
<clipPath id="clip0_44_243">
<rect width="76" height="76" rx="38" fill="white"/>
</clipPath>
</defs>
</svg>
