<svg width="76" height="80" viewBox="0 0 76 80" fill="none" xmlns="http://www.w3.org/2000/svg">
<path d="M61.4329 1.39569C57.5692 1.39569 53.8644 2.90456 51.1325 5.59038C48.4006 8.2762 46.8659 11.9185 46.8659 15.7172C46.8659 19.5149 48.4006 23.1581 51.1325 25.8431C53.8644 28.529 57.5692 30.0378 61.4329 30.0378C65.2958 30.0378 69.0005 28.5289 71.7325 25.8431C74.4644 23.1581 75.9991 19.5149 75.9991 15.7172C75.9955 11.9194 74.4599 8.27891 71.7288 5.59394C68.9978 2.90896 65.2949 1.39925 61.4327 1.39569H61.4329ZM61.4329 22.5657V22.5666C59.5845 22.5666 57.813 21.8447 56.5063 20.56C55.2004 19.2761 54.4662 17.5337 54.4662 15.7173C54.4662 13.9009 55.2004 12.1584 56.5063 10.8737C57.8131 9.58984 59.5845 8.86798 61.4329 8.86798C63.2804 8.86798 65.052 9.58984 66.3587 10.8737C67.6654 12.1584 68.3988 13.9009 68.3988 15.7173C68.3988 17.5337 67.6654 19.2762 66.3587 20.56C65.0519 21.8447 63.2804 22.5666 61.4329 22.5666V22.5657Z" fill="#17E3A6"/>
<path d="M68.3995 53.6986C68.3995 55.35 67.7325 56.9335 66.545 58.101C65.3575 59.2685 63.7459 59.9252 62.0662 59.9252H48.4374L55.8858 52.6023L50.5156 47.3227L36.5819 61.0215L36.581 61.0206C35.8698 61.7216 35.4704 62.6711 35.4704 63.6605C35.4704 64.6507 35.8698 65.6002 36.581 66.3012L50.5147 80L55.8849 74.7204L48.4374 67.3966H62.0662C65.7621 67.3966 69.3061 65.9538 71.9188 63.3843C74.5324 60.8156 75.9999 57.3314 75.9999 53.6987V36.2639H68.3995L68.3995 53.6986Z" fill="#17E3A6"/>
<path d="M14.5666 49.9627C10.7038 49.9627 6.99902 51.4716 4.26711 54.1574C1.5352 56.8423 0.00050354 60.4855 0.00050354 64.2833C0.00050354 68.0819 1.53524 71.7242 4.26711 74.4101C6.99898 77.0959 10.7038 78.6048 14.5666 78.6048C18.4304 78.6048 22.1351 77.0959 24.867 74.4101C27.599 71.7243 29.1337 68.0819 29.1337 64.2833C29.1301 60.4864 27.5945 56.8459 24.8634 54.1607C22.1324 51.4757 18.4295 49.966 14.5666 49.9625V49.9627ZM14.5666 71.1327C12.7191 71.1327 10.9476 70.4108 9.64091 69.127C8.33415 67.8422 7.6008 66.0998 7.6008 64.2834C7.6008 62.467 8.33415 60.7245 9.64091 59.4407C10.9477 58.156 12.7191 57.4341 14.5666 57.4341C16.415 57.4341 18.1866 58.156 19.4932 59.4407C20.7991 60.7246 21.5334 62.467 21.5334 64.2834C21.5334 66.0998 20.7991 67.8423 19.4932 69.127C18.1865 70.4108 16.415 71.1327 14.5666 71.1327Z" fill="#17E3A6"/>
<path d="M4.48678e-05 41.2455H7.60045V26.3012C7.60045 24.6498 8.26752 23.0662 9.45502 21.8988C10.6425 20.7313 12.2541 20.0746 13.9338 20.0746H26.9044L20.2671 26.0276L25.3333 31.5566L39.267 19.1035C40.0348 18.4155 40.4827 17.4487 40.5066 16.4281C40.5305 15.4074 40.1284 14.4206 39.3933 13.6988L25.4596 0L20.0894 5.27966L27.5625 12.6034H13.9337C10.2378 12.6034 6.69384 14.0463 4.08113 16.6157C1.46751 19.1844 0 22.6686 0 26.3014L4.48678e-05 41.2455Z" fill="#17E3A6"/>
</svg>
