<svg width="92" height="106" viewBox="0 0 92 106" fill="none" xmlns="http://www.w3.org/2000/svg">
<g clip-path="url(#clip0_251_5861)">
<path d="M1.74144 54.689C8.13549 60.1733 15.3824 66.3899 29.4002 66.3899C43.4185 66.3896 50.6658 60.1733 57.0601 54.689C63.1071 49.5025 68.3295 45.0229 79.2222 45.0229C90.1152 45.0229 95.3376 49.5025 101.384 54.689C103.155 56.207 105.82 56.0031 107.338 54.2332C108.856 52.463 108.652 49.7976 106.882 48.2795C100.488 42.7951 93.2405 36.5786 79.2222 36.5786C65.204 36.5786 57.9567 42.7949 51.5624 48.2795C45.5154 53.466 40.293 57.9455 29.4002 57.9455C18.5077 57.9455 13.2859 53.4662 7.23934 48.2795C5.4694 46.7614 2.80395 46.9651 1.28566 48.7353C-0.232636 50.5052 -0.028494 53.1709 1.74144 54.689Z" fill="#E0F7F6"/>
<path d="M1.74144 31.5952C8.13528 37.0798 15.3822 43.2961 29.4002 43.2961C43.4185 43.2961 50.6658 37.0798 57.0601 31.5952C63.1071 26.4087 68.3293 21.9292 79.2222 21.9292C90.1148 21.9292 95.3372 26.4085 101.384 31.5952C103.155 33.1137 105.82 32.9092 107.338 31.139C108.856 29.3691 108.652 26.7032 106.882 25.1853C100.487 19.7007 93.2401 13.4849 79.2222 13.4849C65.204 13.4849 57.9567 19.7012 51.5624 25.1858C45.5154 30.3723 40.293 34.8518 29.4002 34.8518C18.5079 34.8518 13.2859 30.3725 7.23934 25.1858C5.4694 23.6675 2.80374 23.8714 1.28566 25.6415C-0.232636 27.4115 -0.028494 30.0771 1.74144 31.5952Z" fill="#E0F7F6"/>
<path d="M106.883 71.3733C100.489 65.8889 93.2413 59.6724 79.223 59.6724C65.2048 59.6724 57.9575 65.8887 51.5632 71.3733C45.5162 76.5598 40.2938 81.0393 29.401 81.0393C18.5091 81.0393 13.2869 76.56 7.24035 71.3737L7.23993 71.3733C5.46999 69.8556 2.80475 70.0595 1.28646 71.8293C-0.231624 73.5992 -0.0274823 76.2649 1.74245 77.7829C8.1365 83.2675 15.3836 89.4836 29.401 89.4836C43.4193 89.4836 50.6666 83.2673 57.0609 77.7827C63.1079 72.5962 68.3303 68.1167 79.223 68.1167C90.116 68.1167 95.3384 72.5962 101.385 77.7827C103.155 79.3008 105.821 79.0969 107.339 77.3269C108.857 75.5568 108.653 72.8913 106.883 71.3733Z" fill="#E0F7F6"/>
</g>
<defs>
<clipPath id="clip0_251_5861">
<rect width="108.088" height="108.088" fill="#E0F7F6" transform="translate(0.268066 -2.55957)"/>
</clipPath>
</defs>
</svg>
